<?xml version="1.0" encoding="UTF-8" standalone="no"?>
<!-- Created with Inkscape (http://www.inkscape.org/) -->

<svg
   width="54.447742mm"
   height="126.17456mm"
   viewBox="0 0 54.447742 126.17456"
   version="1.1"
   id="svg1"
   xml:space="preserve"
   inkscape:version="1.3.2 (091e20e, 2023-11-25, custom)"
   sodipodi:docname="hiker.svg"
   xmlns:inkscape="http://www.inkscape.org/namespaces/inkscape"
   xmlns:sodipodi="http://sodipodi.sourceforge.net/DTD/sodipodi-0.dtd"
   xmlns="http://www.w3.org/2000/svg"
   xmlns:svg="http://www.w3.org/2000/svg"><sodipodi:namedview
     id="namedview1"
     pagecolor="#ffffff"
     bordercolor="#666666"
     borderopacity="1.0"
     inkscape:showpageshadow="2"
     inkscape:pageopacity="0.0"
     inkscape:pagecheckerboard="0"
     inkscape:deskcolor="#d1d1d1"
     inkscape:document-units="mm"
     inkscape:zoom="2.9255614"
     inkscape:cx="85.453684"
     inkscape:cy="-341.30202"
     inkscape:window-width="1920"
     inkscape:window-height="1017"
     inkscape:window-x="-8"
     inkscape:window-y="-8"
     inkscape:window-maximized="1"
     inkscape:current-layer="layer2" /><defs
     id="defs1" /><g
     inkscape:groupmode="layer"
     id="layer2"
     inkscape:label="Layer 2"
     transform="translate(214.32328,204.1022)"><g
       id="g174"
       transform="matrix(8.052221,0,0,8.052221,-1763.5424,166.44999)"><path
         style="fill:#000000;stroke:#000000;stroke-width:0.364851;stroke-linecap:round;stroke-linejoin:round;paint-order:markers fill stroke"
         id="path173"
         sodipodi:type="arc"
         sodipodi:cx="195.75008"
         sodipodi:cy="-34.331741"
         sodipodi:rx="2.4902732"
         sodipodi:ry="3.8089972"
         sodipodi:start="0"
         sodipodi:end="3.1415927"
         sodipodi:arc-type="slice"
         d="m 198.24035,-34.331741 a 2.4902732,3.8089972 0 0 1 -1.24514,3.298688 2.4902732,3.8089972 0 0 1 -2.49027,0 2.4902732,3.8089972 0 0 1 -1.24514,-3.298688 h 2.49028 z" /><path
         id="path174"
         style="fill:#000000;stroke:#000000;stroke-width:0.307696;stroke-linecap:round;stroke-linejoin:round;paint-order:markers fill stroke"
         d="m 193.344,-35.993107 c 0,-2.349432 -1.29556,-3.596178 -0.57857,-5.912866 0.27159,-0.877531 0.58648,-1.643032 0.93849,-2.263882 0.6452,-1.13791 1.36577,-1.702858 2.08582,-1.694843 0.70998,0.0079 1.41944,0.57285 2.0556,1.694844 0.35554,0.62705 0.6732,1.40165 0.94662,2.290197 0.71201,2.313802 -0.58334,3.546003 -0.58334,5.88655 h -2.43231 z"
         sodipodi:nodetypes="csssssccc" /></g></g></svg>
