<?xml version="1.0" encoding="UTF-8" standalone="no"?>
<!-- Created with Inkscape (http://www.inkscape.org/) -->

<svg
   width="9.4733877mm"
   height="5.7604003mm"
   viewBox="0 0 9.4733877 5.7604003"
   version="1.1"
   id="svg1"
   xml:space="preserve"
   inkscape:version="1.3.2 (091e20e, 2023-11-25, custom)"
   sodipodi:docname="hiker.svg"
   xmlns:inkscape="http://www.inkscape.org/namespaces/inkscape"
   xmlns:sodipodi="http://sodipodi.sourceforge.net/DTD/sodipodi-0.dtd"
   xmlns="http://www.w3.org/2000/svg"
   xmlns:svg="http://www.w3.org/2000/svg"><sodipodi:namedview
     id="namedview1"
     pagecolor="#ffffff"
     bordercolor="#666666"
     borderopacity="1.0"
     inkscape:showpageshadow="2"
     inkscape:pageopacity="0.0"
     inkscape:pagecheckerboard="0"
     inkscape:deskcolor="#d1d1d1"
     inkscape:document-units="mm"
     inkscape:zoom="1.4627807"
     inkscape:cx="100.49353"
     inkscape:cy="-294.30249"
     inkscape:window-width="1920"
     inkscape:window-height="1017"
     inkscape:window-x="-8"
     inkscape:window-y="-8"
     inkscape:window-maximized="1"
     inkscape:current-layer="layer2" /><defs
     id="defs1" /><g
     inkscape:groupmode="layer"
     id="layer2"
     inkscape:label="Layer 2"
     transform="translate(120.79116,-21.760465)"><rect
       style="fill:#b27624;stroke:#000000;stroke-width:1;stroke-linecap:round;stroke-linejoin:round;stroke-dasharray:none;paint-order:markers fill stroke"
       id="rect286"
       width="6.0432434"
       height="1.8865151"
       x="-120.38876"
       y="-22.24448"
       rx="0.50585866"
       ry="0.50585866"
       transform="rotate(-21.948175)" /><path
       id="path287"
       style="fill:#a8a8a8;stroke:#000000;stroke-width:1;stroke-linecap:round;stroke-linejoin:round;stroke-dasharray:none;paint-order:markers fill stroke"
       d="m -119.07624,23.759567 c -0.67095,7.3e-5 -1.21484,0.543965 -1.21492,1.214913 8e-5,0.670948 0.54397,1.21484 1.21492,1.214913 0.4152,-1.3e-5 0.60948,0.307975 0.83256,-0.04222 -0.0316,0.345277 0.47738,0.650126 1.34198,0.649933 0.42318,-0.0013 0.81154,-0.09899 1.01131,-0.472057 0.18632,0.498854 0.66224,0.694406 1.19476,0.695816 0.46298,-0.0013 0.88911,-0.252712 1.11414,-0.657324 0.18331,0.115738 0.39558,0.177358 0.61237,0.177767 0.63593,1.42e-4 1.15149,-0.515419 1.15135,-1.151351 -1.5e-4,-0.63573 -0.51562,-1.150976 -1.15135,-1.150834 -0.37575,8.87e-4 -0.72741,0.185109 -0.94206,0.493509 -0.22426,-0.174571 -0.50026,-0.269482 -0.78445,-0.26975 -0.49086,6.57e-4 -0.93803,0.157822 -1.15084,0.60015 -0.18256,-0.420276 -0.59701,-0.567892 -1.05523,-0.568111 l -0.90311,0.264766 c -7e-5,-0.670948 -0.60049,-1.00005 -1.27143,-1.000122 z"
       sodipodi:nodetypes="cccccccccsccccccc" /></g></svg>
