<?xml version="1.0" encoding="UTF-8" standalone="no"?>
<!-- Created with Inkscape (http://www.inkscape.org/) -->

<svg
   width="7.8823433mm"
   height="8.5485859mm"
   viewBox="0 0 7.8823433 8.5485859"
   version="1.1"
   id="svg1"
   xml:space="preserve"
   inkscape:version="1.3.2 (091e20e, 2023-11-25, custom)"
   sodipodi:docname="hiker.svg"
   xmlns:inkscape="http://www.inkscape.org/namespaces/inkscape"
   xmlns:sodipodi="http://sodipodi.sourceforge.net/DTD/sodipodi-0.dtd"
   xmlns="http://www.w3.org/2000/svg"
   xmlns:svg="http://www.w3.org/2000/svg"><sodipodi:namedview
     id="namedview1"
     pagecolor="#ffffff"
     bordercolor="#666666"
     borderopacity="1.0"
     inkscape:showpageshadow="2"
     inkscape:pageopacity="0.0"
     inkscape:pagecheckerboard="0"
     inkscape:deskcolor="#d1d1d1"
     inkscape:document-units="mm"
     inkscape:zoom="1.4627807"
     inkscape:cx="100.49353"
     inkscape:cy="-294.30249"
     inkscape:window-width="1920"
     inkscape:window-height="1017"
     inkscape:window-x="-8"
     inkscape:window-y="-8"
     inkscape:window-maximized="1"
     inkscape:current-layer="layer2" /><defs
     id="defs1" /><g
     inkscape:groupmode="layer"
     id="layer2"
     inkscape:label="Layer 2"
     transform="translate(109.80741,-15.529815)"><path
       id="path286"
       style="display:inline;fill:#feba35;stroke:#000000;stroke-width:1;stroke-linecap:butt;stroke-linejoin:miter;stroke-dasharray:none;stroke-opacity:1"
       d="m -107.12036,16.055959 c -0.0649,-0.0074 -0.12381,0.02797 -0.1788,0.116789 -0.14319,0.231245 -0.67751,2.643195 -1.28674,4.16357 -0.11999,0.09593 -0.23786,0.186106 -0.3483,0.262516 -1.02129,0.706562 0.29063,2.43881 1.10645,2.497265 l 2.03863,-0.575595 c 0.4969,0.135913 1.11788,0.910289 1.58363,1.034821 0.6797,0.210795 1.97653,-1.269364 1.37763,-2.171057 -0.95531,-1.438284 0.96392,-3.752295 0.20541,-3.552238 -0.12981,0.03424 -0.72967,0.413246 -1.46606,0.855245 -0.0804,-0.03367 -0.17099,-0.06248 -0.27233,-0.08578 -0.17915,-0.04119 0.19601,-0.558608 0.0378,-0.640294 -0.10089,-0.817988 -0.64583,-0.986868 -1.01909,-0.773573 -0.0645,0.03684 -0.30423,0.342661 -0.53964,0.58576 -0.42848,0.280113 -0.95626,-1.685394 -1.23855,-1.717474 z"
       sodipodi:nodetypes="sscscccsscscscss" /></g></svg>
