<?xml version="1.0" encoding="UTF-8" standalone="no"?>
<!-- Created with Inkscape (http://www.inkscape.org/) -->

<svg
   width="7.9060178mm"
   height="12.433413mm"
   viewBox="0 0 7.9060178 12.433413"
   version="1.1"
   id="svg1"
   xml:space="preserve"
   inkscape:version="1.3.2 (091e20e, 2023-11-25, custom)"
   sodipodi:docname="hiker.svg"
   xmlns:inkscape="http://www.inkscape.org/namespaces/inkscape"
   xmlns:sodipodi="http://sodipodi.sourceforge.net/DTD/sodipodi-0.dtd"
   xmlns="http://www.w3.org/2000/svg"
   xmlns:svg="http://www.w3.org/2000/svg"><sodipodi:namedview
     id="namedview1"
     pagecolor="#ffffff"
     bordercolor="#666666"
     borderopacity="1.0"
     inkscape:showpageshadow="2"
     inkscape:pageopacity="0.0"
     inkscape:pagecheckerboard="0"
     inkscape:deskcolor="#d1d1d1"
     inkscape:document-units="mm"
     inkscape:zoom="1.4627807"
     inkscape:cx="100.49353"
     inkscape:cy="-294.30249"
     inkscape:window-width="1920"
     inkscape:window-height="1017"
     inkscape:window-x="-8"
     inkscape:window-y="-8"
     inkscape:window-maximized="1"
     inkscape:current-layer="layer2" /><defs
     id="defs1" /><g
     inkscape:groupmode="layer"
     id="layer2"
     inkscape:label="Layer 2"
     transform="translate(120.72191,-3.1991478)"><path
       id="path288"
       style="fill:#d8ccc6;stroke:#000000;stroke-width:1;stroke-linecap:round;stroke-linejoin:round;stroke-dasharray:none;paint-order:markers fill stroke"
       d="m -117.41795,3.699151 a 2.8035929,2.8035929 0 0 0 -2.80396,2.803446 2.8035929,2.8035929 0 0 0 2.79776,2.80293 2.1705236,2.1705236 0 0 0 -0.23254,0.967899 2.1705236,2.1705236 0 0 0 0.28835,1.070736 1.2887484,1.2887484 0 0 0 -1.14153,1.278475 1.2887484,1.2887484 0 0 0 1.28881,1.28881 1.2887484,1.2887484 0 0 0 0.46715,-0.09095 1.1078714,1.1078714 0 0 0 -0.0217,0.204122 1.1078714,1.1078714 0 0 0 1.10795,1.107942 1.1078714,1.1078714 0 0 0 1.10794,-1.107942 1.1078714,1.1078714 0 0 0 -1.10794,-1.107943 1.1078714,1.1078714 0 0 0 -0.31161,0.04496 1.2887484,1.2887484 0 0 0 0.047,-0.338997 1.2887484,1.2887484 0 0 0 -0.0217,-0.235128 2.1705236,2.1705236 0 0 0 0.46767,0.05684 2.1705236,2.1705236 0 0 0 2.17041,-2.170927 2.1705236,2.1705236 0 0 0 -1.82779,-2.142505 2.8035929,2.8035929 0 0 0 0.52916,-1.628324 2.8035929,2.8035929 0 0 0 -2.80344,-2.803447 z" /></g></svg>
