<?xml version="1.0" encoding="UTF-8" standalone="no"?>
<!-- Created with Inkscape (http://www.inkscape.org/) -->

<svg
   width="7.6507602mm"
   height="12.778091mm"
   viewBox="0 0 7.6507602 12.778091"
   version="1.1"
   id="svg1"
   xml:space="preserve"
   inkscape:version="1.3.2 (091e20e, 2023-11-25, custom)"
   sodipodi:docname="hiker.svg"
   xmlns:inkscape="http://www.inkscape.org/namespaces/inkscape"
   xmlns:sodipodi="http://sodipodi.sourceforge.net/DTD/sodipodi-0.dtd"
   xmlns="http://www.w3.org/2000/svg"
   xmlns:svg="http://www.w3.org/2000/svg"><sodipodi:namedview
     id="namedview1"
     pagecolor="#ffffff"
     bordercolor="#666666"
     borderopacity="1.0"
     inkscape:showpageshadow="2"
     inkscape:pageopacity="0.0"
     inkscape:pagecheckerboard="0"
     inkscape:deskcolor="#d1d1d1"
     inkscape:document-units="mm"
     inkscape:zoom="1.4627807"
     inkscape:cx="100.49353"
     inkscape:cy="-294.30249"
     inkscape:window-width="1920"
     inkscape:window-height="1017"
     inkscape:window-x="-8"
     inkscape:window-y="-8"
     inkscape:window-maximized="1"
     inkscape:current-layer="layer2" /><defs
     id="defs1" /><g
     inkscape:groupmode="layer"
     id="layer2"
     inkscape:label="Layer 2"
     transform="translate(101.11009,-2.995155)"><path
       id="path290"
       style="fill:#d8ccc6;fill-opacity:1;stroke:#000000;stroke-width:1;stroke-linecap:round;stroke-dasharray:none;paint-order:markers fill stroke"
       d="m -96.86923,3.4951549 a 2.9097097,2.9097097 0 0 0 -2.9099,2.9098999 2.9097097,2.9097097 0 0 0 0.49661,1.6190226 1.9824395,1.9824395 0 0 0 -1.32757,1.866036 1.9824395,1.9824395 0 0 0 1.16479,1.8060906 1.6626912,1.6626912 0 0 0 -0.078,0.496094 1.6626912,1.6626912 0 0 0 0.30644,0.956014 1.151094,1.151094 0 0 0 -0.53847,0.973583 1.151094,1.151094 0 0 0 1.15083,1.151351 1.151094,1.151094 0 0 0 1.15135,-1.151351 1.151094,1.151094 0 0 0 -0.0434,-0.311608 1.6626912,1.6626912 0 0 0 1.29914,-1.617989 1.6626912,1.6626912 0 0 0 -0.69608,-1.351856 1.9824395,1.9824395 0 0 0 0.24805,-0.9503286 1.9824395,1.9824395 0 0 0 -0.0884,-0.5849773 2.9097097,2.9097097 0 0 0 2.77451,-2.9000813 2.9097097,2.9097097 0 0 0 -2.9099,-2.9098999 z" /></g></svg>
