<?xml version="1.0" encoding="UTF-8" standalone="no"?>
<!-- Created with Inkscape (http://www.inkscape.org/) -->

<svg
   width="6.876389mm"
   height="6.8763914mm"
   viewBox="0 0 6.876389 6.8763914"
   version="1.1"
   id="svg1"
   xml:space="preserve"
   inkscape:version="1.3.2 (091e20e, 2023-11-25, custom)"
   sodipodi:docname="hiker.svg"
   xmlns:inkscape="http://www.inkscape.org/namespaces/inkscape"
   xmlns:sodipodi="http://sodipodi.sourceforge.net/DTD/sodipodi-0.dtd"
   xmlns="http://www.w3.org/2000/svg"
   xmlns:svg="http://www.w3.org/2000/svg"><sodipodi:namedview
     id="namedview1"
     pagecolor="#ffffff"
     bordercolor="#666666"
     borderopacity="1.0"
     inkscape:showpageshadow="2"
     inkscape:pageopacity="0.0"
     inkscape:pagecheckerboard="0"
     inkscape:deskcolor="#d1d1d1"
     inkscape:document-units="mm"
     inkscape:zoom="0.7313903"
     inkscape:cx="130.57324"
     inkscape:cy="28.02881"
     inkscape:window-width="1920"
     inkscape:window-height="1017"
     inkscape:window-x="-8"
     inkscape:window-y="-8"
     inkscape:window-maximized="1"
     inkscape:current-layer="layer2" /><defs
     id="defs1" /><g
     inkscape:groupmode="layer"
     id="layer2"
     inkscape:label="Layer 2"
     transform="translate(-46.67724,20.826677)"><rect
       style="fill:#f0f0f0;stroke:#000000;stroke-width:0.5;stroke-linecap:round;stroke-linejoin:round;stroke-dasharray:none;paint-order:markers fill stroke"
       id="rect15"
       width="6.37639"
       height="6.37639"
       x="46.927238"
       y="-20.576675"
       rx="0.98077106"
       ry="0.98077106" /><path
       id="rect18"
       style="fill:#f0f0f0;stroke:#000000;stroke-width:0.5;stroke-linecap:round;stroke-linejoin:round;stroke-dasharray:none;paint-order:markers fill stroke"
       d="m 51.652537,-19.64622 a 0.57263015,0.57263015 0 0 0 -0.572811,0.572812 0.57263015,0.57263015 0 0 0 0.112224,0.336673 l -1.545034,0.892341 c -0.180889,0.104436 -0.242378,0.334252 -0.137942,0.515141 l 0.151191,0.262246 c 0.104436,0.18089 0.334252,0.242379 0.515141,0.137943 l 1.576597,-0.909875 c 0.04446,-0.02567 0.08132,-0.0592 0.110666,-0.09742 a 0.57263015,0.57263015 0 0 0 0.368626,0.134436 0.57263015,0.57263015 0 0 0 0.572422,-0.572423 0.57263015,0.57263015 0 0 0 -0.572423,-0.572811 0.57263015,0.57263015 0 0 0 -0.02221,0.0016 0.57263015,0.57263015 0 0 0 0.01598,-0.127812 0.57263015,0.57263015 0 0 0 -0.572032,-0.572812 z" /><path
       id="path18"
       style="fill:#d15400;stroke:#000000;stroke-width:0.5;stroke-linecap:round;stroke-linejoin:round;stroke-dasharray:none;paint-order:markers fill stroke"
       d="m 51.176415,-16.897484 c 0,0.692432 -0.597494,0.747433 -1.253759,1.253759 -0.548231,0.422973 -2.049414,-0.549272 -2.049414,-1.241703 0,-0.692432 0.99532,-1.59131 1.687752,-1.59131 0.692432,0 1.615421,0.886822 1.615421,1.579254 z"
       sodipodi:nodetypes="sssss" /><path
       id="path17"
       style="fill:#ed171f;stroke:#000000;stroke-width:0.5;stroke-linecap:round;stroke-linejoin:round;stroke-dasharray:none;paint-order:markers fill stroke"
       d="m 50.079373,-16.234438 c 0.201941,0.564166 -0.594262,0.928263 -1.193481,0.928263 -0.59922,0 -1.097039,-0.582206 -1.097039,-1.181426 0,-0.59922 0.387518,-1.281618 0.880042,-0.940319 0.652407,0.45209 1.233449,0.698912 1.410478,1.193482 z"
       sodipodi:nodetypes="sssss" /></g></svg>
