<?xml version="1.0" encoding="UTF-8" standalone="no"?>
<!-- Created with Inkscape (http://www.inkscape.org/) -->

<svg
   width="8.1998663mm"
   height="8.2004366mm"
   viewBox="0 0 8.1998663 8.2004366"
   version="1.1"
   id="svg1"
   xml:space="preserve"
   inkscape:version="1.3.2 (091e20e, 2023-11-25, custom)"
   sodipodi:docname="hiker.svg"
   xmlns:inkscape="http://www.inkscape.org/namespaces/inkscape"
   xmlns:sodipodi="http://sodipodi.sourceforge.net/DTD/sodipodi-0.dtd"
   xmlns="http://www.w3.org/2000/svg"
   xmlns:svg="http://www.w3.org/2000/svg"><sodipodi:namedview
     id="namedview1"
     pagecolor="#ffffff"
     bordercolor="#666666"
     borderopacity="1.0"
     inkscape:showpageshadow="2"
     inkscape:pageopacity="0.0"
     inkscape:pagecheckerboard="0"
     inkscape:deskcolor="#d1d1d1"
     inkscape:document-units="mm"
     inkscape:zoom="2.9255614"
     inkscape:cx="217.73599"
     inkscape:cy="-153.30391"
     inkscape:window-width="1920"
     inkscape:window-height="1017"
     inkscape:window-x="-8"
     inkscape:window-y="-8"
     inkscape:window-maximized="1"
     inkscape:current-layer="layer2" /><defs
     id="defs1" /><g
     inkscape:groupmode="layer"
     id="layer2"
     inkscape:label="Layer 2"
     transform="translate(-60.531557,46.54906)"><path
       id="path183"
       style="fill:#f0f0f0;stroke:#000000;stroke-width:0.5;stroke-linecap:round;stroke-dasharray:none;paint-order:markers fill stroke"
       d="m 63.928925,-46.29906 c -0.138962,0 -0.250532,0.112148 -0.250532,0.251098 v 0.895484 a 2.834351,2.834351 0 0 0 -0.309574,0.128422 l -0.626025,-0.626037 c -0.09826,-0.09826 -0.256612,-0.09826 -0.35487,0 l -0.975737,0.975737 c -0.09826,0.09826 -0.09826,0.256035 0,0.354293 l 0.638063,0.638073 a 2.834351,2.834351 0 0 0 -0.116375,0.304992 H 61.03209 c -0.138961,0 -0.250532,0.112148 -0.250532,0.251098 v 1.379342 c 0,0.13895 0.111571,0.251098 0.250532,0.251098 h 0.939049 a 2.834351,2.834351 0 0 0 0.118094,0.276325 l -0.659273,0.659285 c -0.09826,0.09826 -0.09826,0.256611 0,0.35487 l 0.975736,0.975159 c 0.09826,0.09826 0.256601,0.09826 0.35487,0 l 0.679342,-0.679342 a 2.834351,2.834351 0 0 0 0.263712,0.09918 v 0.960826 c 0,0.138962 0.111571,0.250532 0.250532,0.250532 h 1.379908 c 0.138961,0 0.250532,-0.11157 0.250532,-0.250532 v -0.979752 a 2.834351,2.834351 0 0 0 0.252817,-0.101465 l 0.682793,0.682782 c 0.09826,0.09826 0.256601,0.09826 0.354858,0 l 0.975747,-0.97516 c 0.09826,-0.09826 0.09826,-0.256611 0,-0.35487 l -0.681073,-0.680496 a 2.834351,2.834351 0 0 0 0.106634,-0.262569 h 0.954525 c 0.138962,0 0.250532,-0.111571 0.250532,-0.250521 v -1.379918 c 0,-0.138951 -0.11157,-0.250521 -0.250532,-0.250521 h -0.936187 a 2.834351,2.834351 0 0 0 -0.111215,-0.286643 l 0.649544,-0.649544 c 0.09826,-0.09826 0.09826,-0.256035 0,-0.354293 l -0.975748,-0.975737 c -0.09826,-0.09826 -0.256599,-0.09826 -0.354857,0 l -0.639793,0.639793 a 2.834351,2.834351 0 0 0 -0.303273,-0.124983 v -0.894907 c 0,-0.13895 -0.11157,-0.251098 -0.250532,-0.251098 z m 0.690248,2.189968 a 1.6228608,1.6228608 0 0 1 1.622973,1.622985 1.6228608,1.6228608 0 0 1 -1.622973,1.622408 1.6228608,1.6228608 0 0 1 -1.622985,-1.622408 1.6228608,1.6228608 0 0 1 1.622985,-1.622985 z" /></g></svg>
