<?xml version="1.0" encoding="UTF-8" standalone="no"?>
<!-- Created with Inkscape (http://www.inkscape.org/) -->

<svg
   width="254.97556mm"
   height="54.109489mm"
   viewBox="0 0 254.97556 54.109489"
   version="1.1"
   id="svg1"
   xml:space="preserve"
   inkscape:version="1.3.2 (091e20e, 2023-11-25, custom)"
   sodipodi:docname="hiker.svg"
   xmlns:inkscape="http://www.inkscape.org/namespaces/inkscape"
   xmlns:sodipodi="http://sodipodi.sourceforge.net/DTD/sodipodi-0.dtd"
   xmlns="http://www.w3.org/2000/svg"
   xmlns:svg="http://www.w3.org/2000/svg"><sodipodi:namedview
     id="namedview1"
     pagecolor="#ffffff"
     bordercolor="#666666"
     borderopacity="1.0"
     inkscape:showpageshadow="2"
     inkscape:pageopacity="0.0"
     inkscape:pagecheckerboard="0"
     inkscape:deskcolor="#d1d1d1"
     inkscape:document-units="mm"
     inkscape:zoom="2.9255614"
     inkscape:cx="85.453684"
     inkscape:cy="-341.30202"
     inkscape:window-width="1920"
     inkscape:window-height="1017"
     inkscape:window-x="-8"
     inkscape:window-y="-8"
     inkscape:window-maximized="1"
     inkscape:current-layer="layer2" /><defs
     id="defs1" /><g
     inkscape:groupmode="layer"
     id="layer2"
     inkscape:label="Layer 2"
     transform="translate(185.91996,364.29186)"><path
       id="rect170"
       style="fill:#feba35;stroke:#000000;stroke-width:1.27159;stroke-linecap:round;paint-order:markers fill stroke"
       d="M -119.10012,-341.17905 H -8.0563857 c 0.2795681,0 0.061547,0.7199 0.5046355,0.81993 44.5648442,10.06086 8.51104595,29.47268 -62.4426488,29.53162 -32.642221,0.0271 -60.116031,0.9277 -49.610351,-29.53162 0.14811,-0.42942 0.22507,-0.81993 0.50463,-0.81993 z"
       sodipodi:nodetypes="ssssss"
       inkscape:export-filename="..\Godot\Games\2025 Monthly\february\graphics\logo.svg"
       inkscape:export-xdpi="22.4"
       inkscape:export-ydpi="22.4" /><path
       id="path170"
       style="fill:#00673e;stroke:#000000;stroke-width:0.847727;stroke-linecap:round;stroke-linejoin:round;stroke-dasharray:none;paint-order:markers fill stroke"
       inkscape:transform-center-x="1.4273387e-05"
       inkscape:transform-center-y="-1.4842363"
       d="m -145.32699,-363.86798 c -0.85992,0 -4.22972,4.57923 -4.65967,5.19555 -0.42994,0.61632 -3.53672,5.32027 -3.10678,5.93658 0.1343,0.19234 0.85825,0.33755 1.81642,0.44546 -0.43218,0.53678 -0.77972,0.97758 -0.91105,1.15238 -0.20984,0.27932 -0.86346,1.19404 -1.60611,2.29443 -0.24781,-1.26523 -2.73904,-5.03678 -3.12125,-5.58467 -0.42999,-0.61632 -3.79973,-5.19555 -4.65967,-5.19555 -0.85992,0 -4.22971,4.57923 -4.65966,5.19555 -0.42994,0.61631 -3.53621,5.32028 -3.10627,5.93659 0.1343,0.19235 0.85827,0.33754 1.81643,0.44545 -0.43217,0.53678 -0.77973,0.97759 -0.91106,1.15239 -0.24988,0.3326 -1.11458,1.5412 -2.02985,2.92798 -0.34314,-0.76582 -0.64148,-1.39792 -0.73949,-1.59525 -0.30743,-0.61887 -2.71623,-5.21674 -3.33106,-5.21674 -0.61481,0 -3.02418,4.59787 -3.33158,5.21674 -0.30739,0.61888 -2.52845,5.34201 -2.22105,5.96088 0.096,0.19314 0.61358,0.33916 1.29863,0.44751 -0.30899,0.53902 -0.55774,0.98151 -0.65164,1.15704 -0.45258,0.84609 -3.72212,7.3043 -3.26957,8.15041 0.11291,0.21091 0.62277,0.37916 1.33687,0.51418 -1.13267,1.92388 -4.59893,8.05921 -4.05505,8.94415 0.60307,0.98121 9.68724,1.18184 10.89339,1.18184 1.20614,0 10.28879,-0.20058 10.89184,-1.18184 0.47693,-0.77598 -2.05646,-5.44676 -3.46904,-7.91734 2.60646,0.0919 4.8894,0.12299 5.53816,0.12299 1.68699,0 14.39125,-0.19947 15.23473,-1.17667 0.31336,-0.36302 -0.34197,-1.62493 -1.31155,-3.10369 1.00063,0.0196 1.99522,0.0362 2.32493,0.0362 0.73171,0 3.54803,-0.0426 6.55825,-0.16485 0.18171,0.20246 0.87922,0.36565 1.85209,0.49662 -1.58425,1.91593 -6.4317,8.02566 -5.67098,8.90695 0.8435,0.97715 13.54875,1.17667 15.23577,1.17667 0.26301,0 1.76183,-0.0574 2.47375,-0.0692 -0.30963,0.81196 -0.47682,1.4547 -0.33073,1.6924 0.60307,0.98121 9.68724,1.18184 10.89339,1.18184 1.20614,0 10.28879,-0.20058 10.89184,-1.18184 0.47693,-0.77598 -2.05646,-5.44676 -3.46904,-7.91734 2.60646,0.0919 4.88941,0.12299 5.53817,0.12299 1.686977,0 14.391247,-0.19947 15.234727,-1.17667 0.31336,-0.36302 -0.34197,-1.62493 -1.31155,-3.10369 1.00063,0.0196 1.99521,0.0362 2.32492,0.0362 0.73171,0 3.54803,-0.0426 6.55826,-0.16485 0.18171,0.20246 0.87921,0.36565 1.85208,0.49662 -1.58425,1.91593 -6.43169,8.02566 -5.67097,8.90695 0.8435,0.97715 13.54874,1.17667 15.23576,1.17667 0.26305,0 1.7622,-0.0574 2.47427,-0.0692 -0.30963,0.81196 -0.47682,1.4547 -0.33073,1.6924 0.60307,0.98121 9.68724,1.18184 10.89339,1.18184 1.20614,0 10.28879,-0.20058 10.89184,-1.18184 0.47693,-0.77598 -2.05646,-5.44676 -3.46904,-7.91734 2.60646,0.0919 4.88941,0.12299 5.53817,0.12299 1.68699,0 14.39125,-0.19947 15.23473,-1.17667 0.31336,-0.36302 -0.34197,-1.62493 -1.31155,-3.10369 1.00063,0.0196 1.99521,0.0362 2.32492,0.0362 0.73171,0 3.54803,-0.0426 6.55826,-0.16485 0.18171,0.20246 0.87921,0.36565 1.85208,0.49662 -1.58425,1.91593 -6.43169,8.02566 -5.67097,8.90695 0.8435,0.97715 13.54874,1.17667 15.23576,1.17667 0.26305,0 1.7622,-0.0574 2.47427,-0.0692 -0.30963,0.81196 -0.47682,1.4547 -0.33073,1.6924 0.60307,0.98121 9.68724,1.18184 10.89339,1.18184 1.20614,0 10.28879,-0.20058 10.89184,-1.18184 0.47693,-0.77598 -2.05646,-5.44676 -3.46904,-7.91734 2.60646,0.0919 4.88941,0.12299 5.53817,0.12299 1.68699,0 14.39125,-0.19947 15.23473,-1.17667 0.31336,-0.36302 -0.34197,-1.62493 -1.31155,-3.10369 1.00063,0.0196 1.99521,0.0362 2.32492,0.0362 0.73171,0 3.54803,-0.0426 6.55826,-0.16485 0.18171,0.20246 0.87921,0.36565 1.85208,0.49662 -1.58425,1.91593 -6.43169,8.02566 -5.67097,8.90695 0.8435,0.97715 13.54874,1.17667 15.23576,1.17667 1.686984,0 14.391254,-0.19947 15.234734,-1.17667 0.76072,-0.88129 -4.08571,-6.99102 -5.66994,-8.90695 0.99881,-0.13454 1.71022,-0.3025 1.8681,-0.51263 0.63304,-0.84262 -3.94037,-7.27371 -4.57336,-8.11631 -0.13135,-0.17465 -0.47803,-0.61581 -0.91002,-1.15238 0.95817,-0.10789 1.6822,-0.253 1.81643,-0.44545 0.42998,-0.61631 -2.67633,-5.32028 -3.10627,-5.93659 -0.42999,-0.61632 -3.799734,-5.19503 -4.659674,-5.19503 -0.85992,0 -4.22971,4.57871 -4.65966,5.19503 -0.25353,0.36344 -1.4291,2.14272 -2.27015,3.67264 -1.06681,-2.21096 -3.71496,-5.92685 -4.18579,-6.5536 -0.13135,-0.17465 -0.47803,-0.61582 -0.91002,-1.15238 0.95817,-0.10789 1.6822,-0.25302 1.81643,-0.44546 0.42998,-0.61631 -2.67684,-5.32026 -3.10679,-5.93658 -0.42999,-0.61632 -3.79921,-5.19555 -4.65915,-5.19555 -0.85992,0 -4.22971,4.57923 -4.65966,5.19555 -0.42994,0.61632 -3.53673,5.32027 -3.10679,5.93658 0.1343,0.19234 0.85826,0.33755 1.81643,0.44546 -0.43218,0.53678 -0.77973,0.97758 -0.91106,1.15238 -0.20984,0.27932 -0.86345,1.19404 -1.6061,2.29443 -0.24781,-1.26523 -2.73905,-5.03678 -3.12126,-5.58467 -0.42999,-0.61632 -3.79972,-5.19555 -4.65966,-5.19555 -0.85992,0 -4.22972,4.57923 -4.65967,5.19555 -0.42994,0.61631 -3.53621,5.32028 -3.10627,5.93659 0.1343,0.19235 0.85827,0.33754 1.81643,0.44545 -0.43217,0.53678 -0.77973,0.97759 -0.91106,1.15239 -0.24988,0.3326 -1.11458,1.5412 -2.02985,2.92798 -0.34314,-0.76582 -0.64148,-1.39792 -0.73949,-1.59525 -0.30743,-0.61887 -2.71623,-5.21674 -3.33106,-5.21674 -0.61481,0 -3.02418,4.59787 -3.33158,5.21674 -0.28779,0.57942 -2.22645003,4.71442 -2.22364003,5.75262 -0.15821,-0.22074 -0.55088,-0.81925 -0.62218,-0.91416 -0.13135,-0.17465 -0.47803,-0.61581 -0.91002001,-1.15238 0.95817001,-0.10789 1.68220001,-0.253 1.81642001,-0.44545 0.42999003,-0.61631 -2.67631997,-5.32028 -3.10626997,-5.93659 -0.42998,-0.61632 -3.79972,-5.19503 -4.65966,-5.19503 -0.85992,0 -4.22971,4.57871 -4.65966,5.19503 -0.25353,0.36344 -1.4291,2.14272 -2.27015,3.67264 -1.06681,-2.21096 -3.71496,-5.92685 -4.18579,-6.5536 -0.13135,-0.17465 -0.47803,-0.61582 -0.91002,-1.15238 0.95817,-0.10789 1.68219,-0.25302 1.81642,-0.44546 0.42999,-0.61631 -2.67683,-5.32026 -3.10678,-5.93658 -0.42999,-0.61632 -3.79921,-5.19555 -4.65915,-5.19555 -0.85992,0 -4.22971,4.57923 -4.65966,5.19555 -0.42994,0.61632 -3.53673,5.32027 -3.10679,5.93658 0.1343,0.19234 0.85826,0.33755 1.81643,0.44546 -0.43218,0.53678 -0.77973,0.97758 -0.91106,1.15238 -0.20984,0.27932 -0.86345,1.19404 -1.6061,2.29443 -0.24781,-1.26523 -2.73905,-5.03678 -3.12126,-5.58467 -0.42999,-0.61632 -3.79972,-5.19555 -4.65966,-5.19555 -0.85992,0 -4.22972,4.57923 -4.65967,5.19555 -0.42994,0.61631 -3.53621,5.32028 -3.10627,5.93659 0.1343,0.19235 0.85827,0.33754 1.81643,0.44545 -0.43217,0.53678 -0.77973,0.97759 -0.91106,1.15239 -0.24988,0.3326 -1.11458,1.5412 -2.02985,2.92798 -0.34314,-0.76582 -0.64148,-1.39792 -0.73949,-1.59525 -0.30743,-0.61887 -2.71623,-5.21674 -3.33106,-5.21674 -0.61481,0 -3.02418,4.59787 -3.33158,5.21674 -0.28779,0.57942 -2.22645,4.71442 -2.22364,5.75262 -0.15821,-0.22074 -0.55088,-0.81925 -0.62218,-0.91416 -0.13135,-0.17465 -0.47803,-0.61581 -0.91002,-1.15238 0.95817,-0.10789 1.68219,-0.253 1.81642,-0.44545 0.42999,-0.61631 -2.67632,-5.32028 -3.10627,-5.93659 -0.42999,-0.61632 -3.79972,-5.19503 -4.65966,-5.19503 -0.85992,0 -4.22971,4.57871 -4.65966,5.19503 -0.25353,0.36344 -1.4291,2.14272 -2.27015,3.67264 -1.06681,-2.21096 -3.71496,-5.92685 -4.18579,-6.5536 -0.13135,-0.17465 -0.47803,-0.61582 -0.91002,-1.15238 0.95817,-0.10789 1.68219,-0.25302 1.81642,-0.44546 0.42999,-0.61631 -2.67683,-5.32026 -3.10678,-5.93658 -0.42999,-0.61632 -3.79921,-5.19555 -4.65915,-5.19555 -0.85992,0 -4.22971,4.57923 -4.65966,5.19555 -0.42994,0.61632 -3.53673,5.32027 -3.10679,5.93658 0.1343,0.19234 0.85826,0.33755 1.81643,0.44546 -0.43218,0.53678 -0.77973,0.97758 -0.91106,1.15238 -0.20984,0.27932 -0.86345,1.19404 -1.6061,2.29443 -0.24781,-1.26523 -2.73905,-5.03678 -3.12126,-5.58467 -0.42999,-0.61632 -3.799717,-5.19555 -4.659657,-5.19555 -0.85992,0 -4.22972,4.57923 -4.65967,5.19555 -0.42994,0.61631 -3.53621,5.32028 -3.10627,5.93659 0.1343,0.19235 0.85827,0.33754 1.81643,0.44545 -0.43217,0.53678 -0.77973,0.97759 -0.91106,1.15239 -0.24988,0.3326 -1.11458,1.5412 -2.02985,2.92798 -0.34314,-0.76582 -0.64148,-1.39792 -0.73949,-1.59525 -0.30743,-0.61887 -2.71623,-5.21674 -3.33106,-5.21674 -0.61481,0 -3.02418,4.59787 -3.33158,5.21674 -0.28774,0.57932 -2.22578,4.71301 -2.22364,5.7521 -0.15807,-0.22054 -0.55041,-0.81878 -0.62166,-0.91364 -0.13135,-0.17465 -0.47804,-0.61581 -0.91003,-1.15238 0.95817,-0.10789 1.6822,-0.253 1.81643,-0.44545 0.42999,-0.61631 -2.67632,-5.32028 -3.10627,-5.93659 -0.42999,-0.61632 -3.79972,-5.19503 -4.65966,-5.19503 -0.85992,0 -4.22972,4.57871 -4.65967,5.19503 -0.25353,0.36344 -1.42909,2.14272 -2.27014,3.67264 -1.06681,-2.21096 -3.71496,-5.92685 -4.18579,-6.5536 -0.13135,-0.17465 -0.47804,-0.61582 -0.91003,-1.15238 0.95817,-0.10789 1.6822,-0.25302 1.81643,-0.44546 0.42999,-0.61631 -2.67684,-5.32026 -3.10679,-5.93658 -0.42999,-0.61632 -3.7992,-5.19555 -4.65914,-5.19555 z m -8.82169,15.55202 c -0.25307,0.382 -0.51057,0.77746 -0.76171,1.17564 -0.17098,-0.22076 -0.37515,-0.48416 -0.71468,-0.90589 0.63712,-0.0717 1.15088,-0.16211 1.47639,-0.26975 z m 60.220617,0 c -0.25307,0.382 -0.51057,0.77746 -0.76171,1.17564 -0.17098,-0.22076 -0.37516,-0.48416 -0.71469,-0.90589 0.63712,-0.0717 1.15089,-0.16211 1.4764,-0.26975 z m 60.22113,0 c -0.25307,0.382 -0.51057,0.77746 -0.76171,1.17564 -0.17098,-0.22076 -0.37516,-0.48416 -0.71469,-0.90589 0.63712,-0.0717 1.15089,-0.16211 1.4764,-0.26975 z m 60.22113,0 c -0.25307,0.382 -0.51057,0.77746 -0.76171,1.17564 -0.17098,-0.22076 -0.37516,-0.48416 -0.71469,-0.90589 0.63712,-0.0717 1.15089,-0.16211 1.4764,-0.26975 z m -161.656287,5.71025 c -0.017,0.12352 -0.0167,0.22728 0.0238,0.28525 0.1343,0.19235 0.85877,0.33755 1.81694,0.44545 -0.43218,0.53679 -0.77973,0.97758 -0.91106,1.15238 -0.008,0.0109 -0.0463,0.0652 -0.0558,0.078 -0.59399,-0.75947 -1.13391,-1.42843 -1.49448,-1.86449 0.22414,-0.0302 0.42841,-0.063 0.62063,-0.0966 z m 60.220617,0 c -0.017,0.12352 -0.0167,0.22728 0.0238,0.28525 0.1343,0.19235 0.85877,0.33755 1.81694,0.44545 -0.43218,0.53679 -0.77972,0.97758 -0.91105,1.15238 -0.008,0.0109 -0.0463,0.0652 -0.0558,0.078 -0.59399,-0.75947 -1.13392,-1.42843 -1.49449,-1.86449 0.22414,-0.0302 0.42842,-0.063 0.62064,-0.0966 z m 60.22113,0 c -0.017,0.12352 -0.0167,0.22728 0.0238,0.28525 0.1343,0.19235 0.85877,0.33755 1.81694,0.44545 -0.43218,0.53679 -0.77972,0.97758 -0.91105,1.15238 -0.008,0.0109 -0.0463,0.0652 -0.0558,0.078 -0.59399,-0.75947 -1.13392,-1.42843 -1.49449,-1.86449 0.22414,-0.0302 0.42842,-0.063 0.62064,-0.0966 z m 60.22113,0 c -0.017,0.12352 -0.0167,0.22728 0.0238,0.28525 0.1343,0.19235 0.85877,0.33755 1.81694,0.44545 -0.43218,0.53679 -0.77972,0.97758 -0.91105,1.15238 -0.008,0.0109 -0.0463,0.0652 -0.0558,0.078 -0.59399,-0.75947 -1.13392,-1.42843 -1.49449,-1.86449 0.22414,-0.0302 0.42842,-0.063 0.62064,-0.0966 z m -165.154257,3.14554 c 0.22353,0.12203 0.56653,0.22879 1.06402,0.30747 -0.18355,0.32018 -0.26586,0.47096 -0.38706,0.6873 -0.25952,-0.37833 -0.47625,-0.71155 -0.67696,-0.99477 z m 60.220607,0 c 0.22344,0.12214 0.56675,0.22874 1.06454,0.30747 -0.18354,0.32018 -0.26586,0.47096 -0.38706,0.6873 -0.25957,-0.3784 -0.47673,-0.7115 -0.67748,-0.99477 z m 60.22112997,0 c 0.22344003,0.12214 0.56675003,0.22874 1.06454003,0.30747 -0.18354,0.32018 -0.26586,0.47096 -0.38706,0.6873 -0.25957,-0.3784 -0.47673,-0.7115 -0.67748003,-0.99477 z"
       inkscape:export-filename="..\Godot\Games\2025 Monthly\february\graphics\game_over\terrain\treeline.svg"
       inkscape:export-xdpi="22.4"
       inkscape:export-ydpi="22.4" /><path
       id="rect171"
       style="opacity:0.158439;stroke:#000000;stroke-linecap:round;paint-order:markers fill stroke"
       d="m -91.602502,-321.88513 h 65.884951 c 0.280245,0 0.505858,0.22561 0.505858,0.50586 v 3.42729 c 0,0.28025 1.628233,-0.0894 1.348682,-0.0697 -22.573838,1.59169 -44.516901,1.54336 -65.884951,0 -0.279517,-0.0202 -2.360398,-0.35351 -2.360398,0.0697 v -3.42729 c 0,-0.28025 0.225613,-0.50586 0.505858,-0.50586 z"
       sodipodi:nodetypes="sssssssss" /><path
       d="m -77.500221,-329.94729 h -0.94555 v 8.50995 h 0.94555 v 3.1014 h -7.148358 v -3.1014 h 0.907728 v -3.12032 h -2.64754 v 3.12032 h 0.907728 v 3.1014 h -7.148357 v -3.1014 h 0.94555 v -8.50995 h -0.94555 v -3.1014 h 7.148357 v 3.1014 h -0.907728 v 2.87447 h 2.64754 v -2.87447 h -0.907728 v -3.1014 h 7.148358 z m 0.756443,11.61135 v -3.1014 h 0.94555 v -8.50995 h -0.94555 v -3.1014 h 7.18618 v 3.1014 h -0.94555 v 8.50995 h 0.94555 v 3.1014 z m 22.10696,-3.1014 h 0.94555 v 3.1014 h -5.162703 l -2.83665,-5.86241 -0.869906,0.71862 v 2.04239 h 0.907728 v 3.1014 h -7.148358 v -3.1014 h 0.94555 v -8.50995 h -0.94555 v -3.1014 h 7.148358 v 3.1014 h -0.907728 v 2.49625 l 2.931205,-2.49625 h -1.191393 v -3.1014 h 7.034892 v 3.1014 h -0.94555 l -3.158137,2.60972 z m 1.626366,3.1014 v -3.1014 h 0.94555 v -8.50995 h -0.94555 v -3.1014 h 12.764925 v 5.71112 h -4.236064 v -2.60972 h -2.288231 v 2.98794 h 1.664168 v 2.15585 h -1.664168 v 3.36616 h 2.288231 v -2.98794 h 4.236064 v 6.08934 z m 13.483528,-3.1014 h 0.94555 v -8.50995 h -0.94555 v -3.1014 h 8.680149 q 2.439519,0 3.725467,1.00228 1.285948,1.00228 1.285948,3.25269 0,1.26704 -0.510597,2.19368 -0.510597,0.92663 -1.456147,1.28594 l 0.01891,0.18911 q 1.815456,0.28367 1.815456,2.2315 v 1.45615 h 0.888817 v 3.1014 h -5.994787 v -4.44408 q 0,-0.73753 -0.226932,-1.11575 -0.208021,-0.37822 -0.680796,-0.5106 -0.453864,-0.13238 -1.304859,-0.13238 v 3.10141 h 1.248126 v 3.1014 h -7.488756 z m 7.261824,-5.40855 q 0.548419,0 0.813173,-0.28366 0.283665,-0.30258 0.283665,-0.92664 v -0.6808 q 0,-0.62406 -0.283665,-0.90773 -0.264754,-0.30257 -0.813173,-0.30257 h -1.021194 v 3.1014 z"
       id="text169"
       style="font-size:18.911px;line-height:1.25;font-family:'Alfa Slab One';-inkscape-font-specification:'Alfa Slab One, Normal';letter-spacing:0px;word-spacing:0px;fill:#f0f0f0;stroke:#000000"
       aria-label="HIKER" /><path
       id="path162"
       style="opacity:0.158439;fill:#000000;stroke-width:0.850444;stroke-linecap:round;stroke-linejoin:round;paint-order:markers fill stroke"
       d="m -91.430018,-317.83912 c 3.346226,-1.29108 -1.54861,2.40411 -8.29592,2.42211 -11.335142,0.0302 -16.601152,-0.91817 -8.748122,-2.73865 1.47344,-0.34156 3.46447,-2.4221 8.29592,-2.4221 4.831452,0 7.337002,3.28309 8.748122,2.73864 z"
       sodipodi:nodetypes="sssss"
       inkscape:export-filename="..\Godot\Games\2025 Monthly\february\graphics\camp_shadow.svg"
       inkscape:export-xdpi="22.4"
       inkscape:export-ydpi="22.4" /><path
       id="path163"
       style="fill:#70bc1f;stroke:#000000;stroke-width:1;stroke-linecap:round;stroke-linejoin:round;stroke-dasharray:none;paint-order:markers fill stroke"
       inkscape:transform-center-x="1.4097544e-06"
       inkscape:transform-center-y="-1.8236821"
       d="m -99.307518,-332.48997 c 5.01965,-2.8218 4.82358,11.46099 7.89677,13.67762 0.709186,0.51153 -6.99039,0.43222 -7.8648,0.43222 -0.874422,0 -8.668792,-0.5012 -7.896792,-0.91184 2.13507,-1.13565 7.452032,-12.96595 7.864822,-13.198 z"
       sodipodi:nodetypes="sssss"
       inkscape:export-filename="..\Godot\Games\2025 Monthly\february\graphics\camp.svg"
       inkscape:export-xdpi="22.4"
       inkscape:export-ydpi="22.4" /><path
       id="path164"
       style="fill:#70bc1f;stroke:#000000;stroke-width:1;stroke-linecap:round;stroke-linejoin:round;stroke-dasharray:none;paint-order:markers fill stroke"
       inkscape:transform-center-x="1.4097544e-06"
       inkscape:transform-center-y="-1.8236821"
       d="m -96.743268,-332.60784 c 0.55321,0 4.81616,11.46309 7.896766,13.67763 0.71,0.51039 -7.022356,0.91184 -7.896766,0.91184 -0.87442,0 -8.668792,-0.50121 -7.896792,-0.91184 2.13506,-1.13566 7.423252,-13.67763 7.896792,-13.67763 z"
       sodipodi:nodetypes="sssss" /><path
       style="fill:none;stroke:#000000;stroke-width:1;stroke-linecap:butt;stroke-linejoin:miter;stroke-dasharray:none;stroke-opacity:1"
       d="m -96.858478,-332.50055 0.6395,14.58052"
       id="path165" /><g
       id="g168"
       transform="translate(-216.60423,-283.19536)"><rect
         style="fill:#b27624;stroke:#000000;stroke-width:1;stroke-linecap:round;stroke-linejoin:round;stroke-dasharray:none;paint-order:markers fill stroke"
         id="rect165"
         width="6.0432434"
         height="1.8865151"
         x="109.94557"
         y="5.3484707"
         rx="0.50585866"
         ry="0.50585866"
         transform="rotate(-21.948175)" /><path
         id="path166"
         style="display:inline;fill:#feba35;stroke:#000000;stroke-width:1;stroke-linecap:butt;stroke-linejoin:miter;stroke-dasharray:none;stroke-opacity:1"
         d="m 106.92103,-44.442518 c -0.0649,-0.0074 -0.12381,0.02797 -0.1788,0.116789 -0.14319,0.231245 -0.67751,2.643195 -1.28674,4.16357 -0.11999,0.09593 -0.23786,0.186106 -0.3483,0.262516 -1.02129,0.706562 0.29063,2.43881 1.10645,2.497265 l 2.03863,-0.575595 c 0.4969,0.135913 1.11788,0.910289 1.58363,1.034821 0.6797,0.210795 1.97653,-1.269364 1.37763,-2.171057 -0.95531,-1.438284 0.96392,-3.752295 0.20541,-3.552238 -0.12981,0.03424 -0.72967,0.413246 -1.46606,0.855245 -0.0804,-0.03367 -0.17099,-0.06248 -0.27233,-0.08578 -0.17915,-0.04119 0.19601,-0.558608 0.0378,-0.640294 -0.10089,-0.817988 -0.64583,-0.986868 -1.01909,-0.773573 -0.0645,0.03684 -0.30423,0.342661 -0.53964,0.58576 -0.42848,0.280113 -0.95626,-1.685394 -1.23855,-1.717474 z"
         sodipodi:nodetypes="sscscccsscscscss" /><path
         id="path167"
         style="fill:#a8a8a8;stroke:#000000;stroke-width:1;stroke-linecap:round;stroke-linejoin:round;stroke-dasharray:none;paint-order:markers fill stroke"
         d="m 104.87735,-36.73891 c -0.67095,7.3e-5 -1.21484,0.543965 -1.21492,1.214913 8e-5,0.670948 0.54397,1.21484 1.21492,1.214913 0.4152,-1.3e-5 0.60948,0.307975 0.83256,-0.04222 -0.0316,0.345277 0.47738,0.650126 1.34198,0.649933 0.42318,-0.0013 0.81154,-0.09899 1.01131,-0.472057 0.18632,0.498854 0.66224,0.694406 1.19476,0.695816 0.46298,-0.0013 0.88911,-0.252712 1.11414,-0.657324 0.18331,0.115738 0.39558,0.177358 0.61237,0.177767 0.63593,1.42e-4 1.15149,-0.515419 1.15135,-1.151351 -1.5e-4,-0.63573 -0.51562,-1.150976 -1.15135,-1.150834 -0.37575,8.87e-4 -0.72741,0.185109 -0.94206,0.493509 -0.22426,-0.174571 -0.50026,-0.269482 -0.78445,-0.26975 -0.49086,6.57e-4 -0.93803,0.157822 -1.15084,0.60015 -0.18256,-0.420276 -0.59701,-0.567892 -1.05523,-0.568111 l -0.90311,0.264766 c -7e-5,-0.670948 -0.60049,-1.00005 -1.27143,-1.000122 z"
         sodipodi:nodetypes="cccccccccsccccccc" /><path
         id="path168"
         style="fill:#d8ccc6;stroke:#000000;stroke-width:1;stroke-linecap:round;stroke-linejoin:round;stroke-dasharray:none;paint-order:markers fill stroke"
         d="m 106.53564,-56.799326 a 2.8035929,2.8035929 0 0 0 -2.80396,2.803446 2.8035929,2.8035929 0 0 0 2.79776,2.80293 2.1705236,2.1705236 0 0 0 -0.23254,0.967899 2.1705236,2.1705236 0 0 0 0.28835,1.070736 1.2887484,1.2887484 0 0 0 -1.14153,1.278475 1.2887484,1.2887484 0 0 0 1.28881,1.28881 1.2887484,1.2887484 0 0 0 0.46715,-0.09095 1.1078714,1.1078714 0 0 0 -0.0217,0.204122 1.1078714,1.1078714 0 0 0 1.10795,1.107942 1.1078714,1.1078714 0 0 0 1.10794,-1.107942 1.1078714,1.1078714 0 0 0 -1.10794,-1.107943 1.1078714,1.1078714 0 0 0 -0.31161,0.04496 1.2887484,1.2887484 0 0 0 0.047,-0.338997 1.2887484,1.2887484 0 0 0 -0.0217,-0.235128 2.1705236,2.1705236 0 0 0 0.46767,0.05684 2.1705236,2.1705236 0 0 0 2.17041,-2.170927 2.1705236,2.1705236 0 0 0 -1.82779,-2.142505 2.8035929,2.8035929 0 0 0 0.52916,-1.628324 2.8035929,2.8035929 0 0 0 -2.80344,-2.803447 z" /></g></g></svg>
