<?xml version="1.0" encoding="UTF-8" standalone="no"?>
<!-- Created with Inkscape (http://www.inkscape.org/) -->

<svg
   width="25.135069mm"
   height="24.321724mm"
   viewBox="0 0 25.135069 24.321724"
   version="1.1"
   id="svg1"
   xml:space="preserve"
   inkscape:version="1.3.2 (091e20e, 2023-11-25, custom)"
   sodipodi:docname="hiker.svg"
   xmlns:inkscape="http://www.inkscape.org/namespaces/inkscape"
   xmlns:sodipodi="http://sodipodi.sourceforge.net/DTD/sodipodi-0.dtd"
   xmlns="http://www.w3.org/2000/svg"
   xmlns:svg="http://www.w3.org/2000/svg"><sodipodi:namedview
     id="namedview1"
     pagecolor="#ffffff"
     bordercolor="#666666"
     borderopacity="1.0"
     inkscape:showpageshadow="2"
     inkscape:pageopacity="0.0"
     inkscape:pagecheckerboard="0"
     inkscape:deskcolor="#d1d1d1"
     inkscape:document-units="mm"
     inkscape:zoom="2.9255614"
     inkscape:cx="184.23814"
     inkscape:cy="-190.90353"
     inkscape:window-width="1920"
     inkscape:window-height="1017"
     inkscape:window-x="-8"
     inkscape:window-y="-8"
     inkscape:window-maximized="1"
     inkscape:current-layer="layer2" /><defs
     id="defs1" /><g
     inkscape:groupmode="layer"
     id="layer2"
     inkscape:label="Layer 2"
     transform="translate(139.83371,-122.6632)"><path
       id="path151"
       style="fill:#70bc1f;stroke:#000000;stroke-width:1;stroke-linecap:round;stroke-linejoin:round;stroke-dasharray:none;paint-order:markers fill stroke"
       inkscape:transform-center-x="1.4097544e-06"
       inkscape:transform-center-y="-1.8236821"
       d="m -125.69942,130.66792 c 5.01965,-2.8218 4.82358,11.46099 7.89677,13.67762 0.70918,0.51153 -6.99039,0.43222 -7.8648,0.43222 -0.87442,0 -8.66879,-0.5012 -7.89679,-0.91184 2.13507,-1.13565 7.45203,-12.96595 7.86482,-13.198 z"
       sodipodi:nodetypes="sssss"
       inkscape:export-filename="..\Godot\Games\2025 Monthly\february\graphics\camp.svg"
       inkscape:export-xdpi="22.4"
       inkscape:export-ydpi="22.4" /><path
       id="path152"
       style="fill:#70bc1f;stroke:#000000;stroke-width:1;stroke-linecap:round;stroke-linejoin:round;stroke-dasharray:none;paint-order:markers fill stroke"
       inkscape:transform-center-x="1.4097544e-06"
       inkscape:transform-center-y="-1.8236821"
       d="m -123.13517,130.55005 c 0.55321,0 4.81616,11.46309 7.89676,13.67763 0.71,0.51039 -7.02235,0.91184 -7.89676,0.91184 -0.87442,0 -8.66879,-0.50121 -7.89679,-0.91184 2.13506,-1.13566 7.42325,-13.67763 7.89679,-13.67763 z"
       sodipodi:nodetypes="sssss" /><path
       style="fill:none;stroke:#000000;stroke-width:1;stroke-linecap:butt;stroke-linejoin:miter;stroke-dasharray:none;stroke-opacity:1"
       d="m -123.25038,130.65734 0.6395,14.58052"
       id="path153" /><g
       id="g158"
       transform="translate(-242.99614,179.96253)"><rect
         style="fill:#b27624;stroke:#000000;stroke-width:1;stroke-linecap:round;stroke-linejoin:round;stroke-dasharray:none;paint-order:markers fill stroke"
         id="rect154"
         width="6.0432434"
         height="1.8865151"
         x="109.94557"
         y="5.3484707"
         rx="0.50585866"
         ry="0.50585866"
         transform="rotate(-21.948175)" /><path
         id="path155"
         style="display:inline;fill:#feba35;stroke:#000000;stroke-width:1;stroke-linecap:butt;stroke-linejoin:miter;stroke-dasharray:none;stroke-opacity:1"
         d="m 106.92103,-44.442518 c -0.0649,-0.0074 -0.12381,0.02797 -0.1788,0.116789 -0.14319,0.231245 -0.67751,2.643195 -1.28674,4.16357 -0.11999,0.09593 -0.23786,0.186106 -0.3483,0.262516 -1.02129,0.706562 0.29063,2.43881 1.10645,2.497265 l 2.03863,-0.575595 c 0.4969,0.135913 1.11788,0.910289 1.58363,1.034821 0.6797,0.210795 1.97653,-1.269364 1.37763,-2.171057 -0.95531,-1.438284 0.96392,-3.752295 0.20541,-3.552238 -0.12981,0.03424 -0.72967,0.413246 -1.46606,0.855245 -0.0804,-0.03367 -0.17099,-0.06248 -0.27233,-0.08578 -0.17915,-0.04119 0.19601,-0.558608 0.0378,-0.640294 -0.10089,-0.817988 -0.64583,-0.986868 -1.01909,-0.773573 -0.0645,0.03684 -0.30423,0.342661 -0.53964,0.58576 -0.42848,0.280113 -0.95626,-1.685394 -1.23855,-1.717474 z"
         sodipodi:nodetypes="sscscccsscscscss" /><path
         id="path157"
         style="fill:#a8a8a8;stroke:#000000;stroke-width:1;stroke-linecap:round;stroke-linejoin:round;stroke-dasharray:none;paint-order:markers fill stroke"
         d="m 104.87735,-36.73891 c -0.67095,7.3e-5 -1.21484,0.543965 -1.21492,1.214913 8e-5,0.670948 0.54397,1.21484 1.21492,1.214913 0.4152,-1.3e-5 0.60948,0.307975 0.83256,-0.04222 -0.0316,0.345277 0.47738,0.650126 1.34198,0.649933 0.42318,-0.0013 0.81154,-0.09899 1.01131,-0.472057 0.18632,0.498854 0.66224,0.694406 1.19476,0.695816 0.46298,-0.0013 0.88911,-0.252712 1.11414,-0.657324 0.18331,0.115738 0.39558,0.177358 0.61237,0.177767 0.63593,1.42e-4 1.15149,-0.515419 1.15135,-1.151351 -1.5e-4,-0.63573 -0.51562,-1.150976 -1.15135,-1.150834 -0.37575,8.87e-4 -0.72741,0.185109 -0.94206,0.493509 -0.22426,-0.174571 -0.50026,-0.269482 -0.78445,-0.26975 -0.49086,6.57e-4 -0.93803,0.157822 -1.15084,0.60015 -0.18256,-0.420276 -0.59701,-0.567892 -1.05523,-0.568111 l -0.90311,0.264766 c -7e-5,-0.670948 -0.60049,-1.00005 -1.27143,-1.000122 z"
         sodipodi:nodetypes="cccccccccsccccccc" /><path
         id="path158"
         style="fill:#d8ccc6;stroke:#000000;stroke-width:1;stroke-linecap:round;stroke-linejoin:round;stroke-dasharray:none;paint-order:markers fill stroke"
         d="m 106.53564,-56.799326 a 2.8035929,2.8035929 0 0 0 -2.80396,2.803446 2.8035929,2.8035929 0 0 0 2.79776,2.80293 2.1705236,2.1705236 0 0 0 -0.23254,0.967899 2.1705236,2.1705236 0 0 0 0.28835,1.070736 1.2887484,1.2887484 0 0 0 -1.14153,1.278475 1.2887484,1.2887484 0 0 0 1.28881,1.28881 1.2887484,1.2887484 0 0 0 0.46715,-0.09095 1.1078714,1.1078714 0 0 0 -0.0217,0.204122 1.1078714,1.1078714 0 0 0 1.10795,1.107942 1.1078714,1.1078714 0 0 0 1.10794,-1.107942 1.1078714,1.1078714 0 0 0 -1.10794,-1.107943 1.1078714,1.1078714 0 0 0 -0.31161,0.04496 1.2887484,1.2887484 0 0 0 0.047,-0.338997 1.2887484,1.2887484 0 0 0 -0.0217,-0.235128 2.1705236,2.1705236 0 0 0 0.46767,0.05684 2.1705236,2.1705236 0 0 0 2.17041,-2.170927 2.1705236,2.1705236 0 0 0 -1.82779,-2.142505 2.8035929,2.8035929 0 0 0 0.52916,-1.628324 2.8035929,2.8035929 0 0 0 -2.80344,-2.803447 z" /></g></g></svg>
