<?xml version="1.0" encoding="UTF-8" standalone="no"?>
<!-- Created with Inkscape (http://www.inkscape.org/) -->

<svg
   width="12.801883mm"
   height="13.028711mm"
   viewBox="0 0 12.801883 13.028711"
   version="1.1"
   id="svg1"
   xml:space="preserve"
   inkscape:version="1.3.2 (091e20e, 2023-11-25, custom)"
   sodipodi:docname="hiker.svg"
   xmlns:inkscape="http://www.inkscape.org/namespaces/inkscape"
   xmlns:sodipodi="http://sodipodi.sourceforge.net/DTD/sodipodi-0.dtd"
   xmlns="http://www.w3.org/2000/svg"
   xmlns:svg="http://www.w3.org/2000/svg"><sodipodi:namedview
     id="namedview1"
     pagecolor="#ffffff"
     bordercolor="#666666"
     borderopacity="1.0"
     inkscape:showpageshadow="2"
     inkscape:pageopacity="0.0"
     inkscape:pagecheckerboard="0"
     inkscape:deskcolor="#d1d1d1"
     inkscape:document-units="mm"
     inkscape:zoom="0.73139036"
     inkscape:cx="221.49595"
     inkscape:cy="-592.70675"
     inkscape:window-width="1920"
     inkscape:window-height="1017"
     inkscape:window-x="-8"
     inkscape:window-y="-8"
     inkscape:window-maximized="1"
     inkscape:current-layer="layer2" /><defs
     id="defs1" /><g
     inkscape:groupmode="layer"
     id="layer2"
     inkscape:label="Layer 2"
     transform="translate(-247.34693,164.82693)"><path
       id="path242"
       style="fill:#008777;stroke:#000000;stroke-linecap:round;paint-order:markers fill stroke"
       d="m 252.3231,-164.32692 c -0.94914,5e-5 -1.71848,0.76962 -1.71824,1.71876 l 0.0167,0.89334 c -0.33974,-0.0256 -0.62193,-0.12363 -1.05639,-0.12491 -0.94894,5e-5 -1.71819,0.7693 -1.71824,1.71824 2e-5,0.6711 0.39073,1.28077 1.00045,1.56114 -0.40297,0.32543 -0.63764,0.81528 -0.63872,1.33325 8.7e-4,0.66205 0.38201,1.26471 0.97979,1.54926 -0.0192,0.10035 -0.0294,0.20222 -0.0305,0.30438 5e-5,0.94894 0.7693,1.71819 1.71824,1.71824 0.0886,-2.3e-4 0.17706,-0.007 0.26458,-0.0212 0.16157,0.80012 0.86373,1.37615 1.68,1.37821 0.81825,-0.002 1.52154,-0.58082 1.68104,-1.38338 0.0654,-0.003 0.13067,-0.008 0.19585,-0.0139 0.32329,0.34202 0.77271,0.53647 1.24334,0.53795 0.94894,-5e-5 1.71819,-0.7693 1.71824,-1.71824 -0.002,-0.12389 -0.0164,-0.24725 -0.0444,-0.36793 0.0601,-0.075 0.11782,-0.15187 0.17311,-0.23048 0.0474,0.005 0.095,0.009 0.14263,0.0103 0.94894,-5e-5 1.71819,-0.7693 1.71824,-1.71824 -0.002,-0.63933 -0.3583,-1.22482 -0.92552,-1.5198 -0.0194,-0.2042 -0.0523,-0.40687 -0.0987,-0.60668 0.41799,-0.32554 0.66244,-0.82568 0.6625,-1.35548 -5e-5,-0.94894 -0.76931,-1.7182 -1.71825,-1.71824 -0.13932,0.001 -0.27797,0.0195 -0.41289,0.0543 -0.0433,-0.91492 -0.79662,-1.63506 -1.71256,-1.63711 -0.60909,0.002 -1.17177,0.32569 -1.47898,0.85163 -0.22159,-0.72075 -0.88719,-1.21283 -1.64124,-1.21336 z"
       sodipodi:nodetypes="ccccscccccccccccccccccccccccc" /></g></svg>
