<?xml version="1.0" encoding="UTF-8" standalone="no"?>
<!-- Created with Inkscape (http://www.inkscape.org/) -->

<svg
   width="19.093601mm"
   height="14.359395mm"
   viewBox="0 0 19.093601 14.359395"
   version="1.1"
   id="svg1"
   xml:space="preserve"
   inkscape:version="1.3.2 (091e20e, 2023-11-25, custom)"
   sodipodi:docname="hiker.svg"
   xmlns:inkscape="http://www.inkscape.org/namespaces/inkscape"
   xmlns:sodipodi="http://sodipodi.sourceforge.net/DTD/sodipodi-0.dtd"
   xmlns="http://www.w3.org/2000/svg"
   xmlns:svg="http://www.w3.org/2000/svg"><sodipodi:namedview
     id="namedview1"
     pagecolor="#ffffff"
     bordercolor="#666666"
     borderopacity="1.0"
     inkscape:showpageshadow="2"
     inkscape:pageopacity="0.0"
     inkscape:pagecheckerboard="0"
     inkscape:deskcolor="#d1d1d1"
     inkscape:document-units="mm"
     inkscape:zoom="0.73139035"
     inkscape:cx="921.53253"
     inkscape:cy="-710.29102"
     inkscape:window-width="1920"
     inkscape:window-height="1017"
     inkscape:window-x="-8"
     inkscape:window-y="-8"
     inkscape:window-maximized="1"
     inkscape:current-layer="layer2" /><defs
     id="defs1" /><g
     inkscape:groupmode="layer"
     id="layer2"
     inkscape:label="Layer 2"
     transform="translate(-315.7649,190.55456)"><path
       id="path127"
       style="fill:#e8a900;stroke:#000000;stroke-width:1;stroke-linecap:round;stroke-dasharray:none;paint-order:markers fill stroke"
       d="m 323.93704,-186.01488 c 0,1.05238 -0.6825,1.9055 -1.52441,1.9055 -0.84191,0 -1.52441,-0.85312 -1.52441,-1.9055 0,-1.05239 0.6825,-4.03968 1.52441,-4.03968 0.8419,0 1.52441,2.98729 1.52441,4.03968 z"
       sodipodi:nodetypes="sssss" /><path
       id="path133"
       style="fill:#feba35;stroke:#000000;stroke-width:1;stroke-linecap:round;stroke-dasharray:none;paint-order:markers fill stroke"
       d="m 328.40142,-185.21217 c -0.61618,0.61618 -1.60236,0.62903 -2.2027,0.0287 -0.60033,-0.60034 -0.58748,-1.58651 0.0287,-2.2027 0.61618,-0.61618 2.85193,-1.87861 3.45227,-1.27827 0.60033,0.60033 -0.66209,2.83609 -1.27828,3.45227 z"
       sodipodi:nodetypes="sssss" /><path
       id="path138"
       style="fill:#feba35;stroke:#000000;stroke-width:1;stroke-linecap:round;stroke-dasharray:none;paint-order:markers fill stroke"
       d="m 319.60463,-183.02229 c 0.43571,0.75467 0.19288,1.71057 -0.54237,2.13508 -0.73527,0.42449 -1.68451,0.15684 -2.12022,-0.59783 -0.43571,-0.75466 -1.07647,-3.24097 -0.3412,-3.66547 0.73525,-0.4245 2.56809,1.37356 3.00379,2.12823 z"
       sodipodi:nodetypes="sssss" /><path
       id="path139"
       style="fill:#e8a900;stroke:#000000;stroke-width:1;stroke-linecap:round;stroke-dasharray:none;paint-order:markers fill stroke"
       d="m 322.68916,-178.13283 c -0.61619,-0.61619 -0.62904,-1.60236 -0.0287,-2.2027 0.60035,-0.60033 1.58652,-0.58748 2.2027,0.0287 0.61619,0.61618 1.87862,2.85193 1.27827,3.45226 -0.60033,0.60034 -2.83609,-0.66208 -3.45227,-1.27827 z"
       sodipodi:nodetypes="sssss" /><path
       id="path140"
       style="fill:#fe9e32;stroke:#000000;stroke-width:1;stroke-linecap:round;stroke-dasharray:none;paint-order:markers fill stroke"
       d="m 330.74682,-182.09771 c -0.61619,-0.61619 -0.62904,-1.60236 -0.0287,-2.2027 0.60035,-0.60033 1.58652,-0.58748 2.2027,0.0287 0.61619,0.61618 1.87862,2.85193 1.27827,3.45226 -0.60033,0.60034 -2.83609,-0.66208 -3.45227,-1.27827 z"
       sodipodi:nodetypes="sssss" /></g></svg>
