<?xml version="1.0" encoding="UTF-8" standalone="no"?>
<!-- Created with Inkscape (http://www.inkscape.org/) -->

<svg
   width="21.908901mm"
   height="8.6102467mm"
   viewBox="0 0 21.908901 8.6102467"
   version="1.1"
   id="svg1"
   xml:space="preserve"
   inkscape:version="1.3.2 (091e20e, 2023-11-25, custom)"
   sodipodi:docname="hiker.svg"
   xmlns:inkscape="http://www.inkscape.org/namespaces/inkscape"
   xmlns:sodipodi="http://sodipodi.sourceforge.net/DTD/sodipodi-0.dtd"
   xmlns="http://www.w3.org/2000/svg"
   xmlns:svg="http://www.w3.org/2000/svg"><sodipodi:namedview
     id="namedview1"
     pagecolor="#ffffff"
     bordercolor="#666666"
     borderopacity="1.0"
     inkscape:showpageshadow="2"
     inkscape:pageopacity="0.0"
     inkscape:pagecheckerboard="0"
     inkscape:deskcolor="#d1d1d1"
     inkscape:document-units="mm"
     inkscape:zoom="0.73139036"
     inkscape:cx="221.49595"
     inkscape:cy="-592.70675"
     inkscape:window-width="1920"
     inkscape:window-height="1017"
     inkscape:window-x="-8"
     inkscape:window-y="-8"
     inkscape:window-maximized="1"
     inkscape:current-layer="layer2" /><defs
     id="defs1" /><g
     inkscape:groupmode="layer"
     id="layer2"
     inkscape:label="Layer 2"
     transform="translate(-212.25779,170.04609)"><path
       id="rect241"
       style="fill:#d15400;stroke:#000000;stroke-width:1;stroke-linecap:round;stroke-dasharray:none;paint-order:markers fill stroke"
       d="m 228.1248,-169.54596 c -0.0707,0.002 -0.14294,0.03 -0.20319,0.0758 l -2.91286,2.21483 c -0.0583,0.0443 -0.0971,0.10235 -0.11905,0.16661 l -5.4047,-0.10043 c -2.80109,0.18167 -3.8518,0.24709 -5.83936,0.24709 -0.24956,0 -0.37925,0.21113 -0.45061,0.45028 0,0 -0.23385,0.55746 -0.41137,2.09544 -0.15232,1.31966 0.41137,2.00897 0.41137,2.00897 0,0.24956 0.20111,0.45576 0.45061,0.45061 l 5.63351,-0.12371 c 4.18769,-0.0615 7.49019,-0.41771 13.48648,0.12371 0.24855,0.0224 0.39122,-0.20822 0.45061,-0.45061 0,0 0.22157,-0.48825 0.41137,-1.67975 0.1898,-1.19149 -0.41137,-2.42466 -0.41137,-2.42466 0,-0.24957 -0.20109,-0.44577 -0.45061,-0.45028 l -4.65113,-0.0865 0.97139,-1.27769 c 0.10041,-0.13206 0.1103,-0.28777 0,-0.39807 l -0.76587,-0.76588 c -0.0551,-0.0551 -0.12452,-0.0782 -0.19522,-0.0758 z" /></g></svg>
