<?xml version="1.0" encoding="UTF-8" standalone="no"?>
<!-- Created with Inkscape (http://www.inkscape.org/) -->

<svg
   width="20.444294mm"
   height="11.286101mm"
   viewBox="0 0 20.444294 11.286101"
   version="1.1"
   id="svg1"
   xml:space="preserve"
   inkscape:version="1.3.2 (091e20e, 2023-11-25, custom)"
   sodipodi:docname="hiker.svg"
   xmlns:inkscape="http://www.inkscape.org/namespaces/inkscape"
   xmlns:sodipodi="http://sodipodi.sourceforge.net/DTD/sodipodi-0.dtd"
   xmlns="http://www.w3.org/2000/svg"
   xmlns:svg="http://www.w3.org/2000/svg"><sodipodi:namedview
     id="namedview1"
     pagecolor="#ffffff"
     bordercolor="#666666"
     borderopacity="1.0"
     inkscape:showpageshadow="2"
     inkscape:pageopacity="0.0"
     inkscape:pagecheckerboard="0"
     inkscape:deskcolor="#d1d1d1"
     inkscape:document-units="mm"
     inkscape:zoom="0.73139035"
     inkscape:cx="921.53253"
     inkscape:cy="-710.29102"
     inkscape:window-width="1920"
     inkscape:window-height="1017"
     inkscape:window-x="-8"
     inkscape:window-y="-8"
     inkscape:window-maximized="1"
     inkscape:current-layer="layer2" /><defs
     id="defs1" /><g
     inkscape:groupmode="layer"
     id="layer2"
     inkscape:label="Layer 2"
     transform="translate(-225.59644,222.31909)"><path
       id="rect6"
       style="fill:#d15400;stroke:#000000;stroke-linecap:round;paint-order:markers fill stroke"
       d="m 231.94844,-221.53707 c -0.62611,-0.78972 -1.23988,0.29126 -1.23988,0.66275 v 2.70629 l -3.91242,-0.19585 c -0.38731,-0.0194 -0.6997,0.80954 -0.6997,1.19734 v 0.95188 c 0,0.3878 0.31239,1.30718 0.6997,1.28778 l 12.01477,0.004 1.92288,3.33003 c 0.0661,0.11447 0.23515,0.0458 0.42994,-0.0667 l 0.43254,-0.2496 c 0.19482,-0.11246 0.39054,0.0675 0.27285,-0.33951 l -1.06919,-3.15871 4.04058,-0.42402 c 0.38731,-0.0194 0.70022,-0.26746 0.70022,-0.65526 v -0.36328 c 0,-0.3878 -0.31291,-0.59038 -0.70022,-0.60978 l -11.60963,-0.58188 -0.9033,-2.48099 z"
       sodipodi:nodetypes="csccsscccccsccsscccc" /></g></svg>
