<?xml version="1.0" encoding="UTF-8" standalone="no"?>
<!-- Created with Inkscape (http://www.inkscape.org/) -->

<svg
   width="13.534122mm"
   height="11.359578mm"
   viewBox="0 0 13.534122 11.359578"
   version="1.1"
   id="svg1"
   xml:space="preserve"
   inkscape:version="1.3.2 (091e20e, 2023-11-25, custom)"
   sodipodi:docname="hiker.svg"
   xmlns:inkscape="http://www.inkscape.org/namespaces/inkscape"
   xmlns:sodipodi="http://sodipodi.sourceforge.net/DTD/sodipodi-0.dtd"
   xmlns="http://www.w3.org/2000/svg"
   xmlns:svg="http://www.w3.org/2000/svg"><sodipodi:namedview
     id="namedview1"
     pagecolor="#ffffff"
     bordercolor="#666666"
     borderopacity="1.0"
     inkscape:showpageshadow="2"
     inkscape:pageopacity="0.0"
     inkscape:pagecheckerboard="0"
     inkscape:deskcolor="#d1d1d1"
     inkscape:document-units="mm"
     inkscape:zoom="0.73139035"
     inkscape:cx="921.53253"
     inkscape:cy="-710.29102"
     inkscape:window-width="1920"
     inkscape:window-height="1017"
     inkscape:window-x="-8"
     inkscape:window-y="-8"
     inkscape:window-maximized="1"
     inkscape:current-layer="layer2" /><defs
     id="defs1" /><g
     inkscape:groupmode="layer"
     id="layer2"
     inkscape:label="Layer 2"
     transform="translate(-275.12311,206.41769)"><path
       id="path250"
       style="fill:#008777;stroke:#000000;stroke-linecap:round;paint-order:markers fill stroke"
       inkscape:transform-center-x="3.6190473e-06"
       inkscape:transform-center-y="-0.71625562"
       d="m 295.20952,-195.59331 c 0.42344,0 1.56365,4.34707 1.95485,4.50911 0.3912,0.16205 3.48196,-1.60171 3.78137,-1.3023 0.29942,0.29942 -1.45016,3.40436 -1.28814,3.79556 0.16205,0.3912 5.34046,-1.47423 5.34046,-1.05079 0,0.42343 -5.17841,4.18558 -5.34046,4.57678 -0.16204,0.39121 3.00728,2.15187 2.70786,2.45129 -0.29941,0.29941 -4.80991,-0.12007 -5.20111,0.042 -0.39121,0.16204 -0.52506,4.2204 -0.94854,4.2204 -0.42343,0 -1.97249,-3.83681 -2.3637,-3.99885 -0.3912,-0.16204 -3.58071,1.25093 -3.88012,0.95152 -0.29942,-0.29942 1.33511,-3.27512 1.17307,-3.66633 -0.16204,-0.3912 -4.06147,0.57893 -4.06147,0.1555 0,-0.42344 3.89943,-3.29029 4.06147,-3.68149 0.16204,-0.39121 -2.16308,-3.83462 -1.86366,-4.13404 0.29941,-0.29941 3.96571,1.80283 4.35691,1.64078 0.39121,-0.16204 1.14772,-4.50911 1.57115,-4.50911 z"
       sodipodi:nodetypes="ssssssssssssssssss"
       inkscape:export-filename="..\Godot\Games\2025 Monthly\february\graphics\terrain_tiles\bush_2.svg"
       inkscape:export-xdpi="22.4"
       inkscape:export-ydpi="22.4" /><path
       id="path156"
       style="fill:#70bc1f;stroke:#000000;stroke-width:1;stroke-linecap:round;stroke-dasharray:none;paint-order:markers fill stroke"
       d="m 281.76223,-205.91769 a 2.4300873,1.9824395 0 0 0 -2.43034,1.98231 2.4300873,1.9824395 0 0 0 0.0233,0.26458 2.4300873,2.1103389 0 0 0 -1.30225,-0.32866 2.4300873,2.1103389 0 0 0 -2.42982,2.11046 2.4300873,2.1103389 0 0 0 2.3058,2.10272 2.1103389,2.6858859 0 0 0 -0.38757,1.54254 2.1103389,2.6858859 0 0 0 2.11046,2.68562 2.1103389,2.6858859 0 0 0 1.88309,-1.48621 2.6858859,2.6219363 0 0 0 2.27376,1.23042 2.6858859,2.6219363 0 0 0 2.68615,-2.62207 2.6858859,2.6219363 0 0 0 -0.14367,-0.84284 2.0463891,1.5347919 0 0 0 1.8061,-1.5229 2.0463891,1.5347919 0 0 0 -2.04639,-1.53479 2.0463891,1.5347919 0 0 0 -1.52446,0.51521 2.8137853,2.8137853 0 0 0 -0.78909,-1.03249 2.4300873,1.9824395 0 0 0 0.3948,-1.08159 2.4300873,1.9824395 0 0 0 -2.42982,-1.98231 z" /></g></svg>
