<?xml version="1.0" encoding="UTF-8" standalone="no"?>
<!-- Created with Inkscape (http://www.inkscape.org/) -->

<svg
   width="9.8206215mm"
   height="9.8206053mm"
   viewBox="0 0 9.8206215 9.8206053"
   version="1.1"
   id="svg1"
   xml:space="preserve"
   inkscape:version="1.3.2 (091e20e, 2023-11-25, custom)"
   sodipodi:docname="hiker.svg"
   xmlns:inkscape="http://www.inkscape.org/namespaces/inkscape"
   xmlns:sodipodi="http://sodipodi.sourceforge.net/DTD/sodipodi-0.dtd"
   xmlns="http://www.w3.org/2000/svg"
   xmlns:svg="http://www.w3.org/2000/svg"><sodipodi:namedview
     id="namedview1"
     pagecolor="#ffffff"
     bordercolor="#666666"
     borderopacity="1.0"
     inkscape:showpageshadow="2"
     inkscape:pageopacity="0.0"
     inkscape:pagecheckerboard="0"
     inkscape:deskcolor="#d1d1d1"
     inkscape:document-units="mm"
     inkscape:zoom="0.73139035"
     inkscape:cx="921.53253"
     inkscape:cy="-710.29102"
     inkscape:window-width="1920"
     inkscape:window-height="1017"
     inkscape:window-x="-8"
     inkscape:window-y="-8"
     inkscape:window-maximized="1"
     inkscape:current-layer="layer2" /><defs
     id="defs1" /><g
     inkscape:groupmode="layer"
     id="layer2"
     inkscape:label="Layer 2"
     transform="translate(-300.6424,221.74162)"><path
       sodipodi:type="star"
       style="fill:#b27624;stroke:#000000;stroke-width:1;stroke-linecap:round;paint-order:markers fill stroke"
       id="path75"
       inkscape:flatsided="false"
       sodipodi:sides="8"
       sodipodi:cx="303.633"
       sodipodi:cy="-178.54747"
       sodipodi:r1="4.4636383"
       sodipodi:r2="4.046628"
       sodipodi:arg1="-2.1818726"
       sodipodi:arg2="-1.7891735"
       inkscape:rounded="0.3"
       inkscape:randomized="0"
       d="m 301.07199,-182.20333 c 0.42014,-0.29432 1.18353,-0.18353 1.68432,-0.29466 0.50079,-0.11114 1.14566,-0.53444 1.65086,-0.44547 0.5052,0.089 0.96666,0.70711 1.39936,0.98264 0.43269,0.27553 1.18801,0.4322 1.48232,0.85234 0.29432,0.42014 0.18353,1.18354 0.29467,1.68433 0.11113,0.50078 0.53443,1.14566 0.44546,1.65085 -0.089,0.5052 -0.70711,0.96667 -0.98263,1.39936 -0.27553,0.4327 -0.43221,1.18801 -0.85235,1.48233 -0.42013,0.29432 -1.18353,0.18353 -1.68432,0.29466 -0.50079,0.11113 -1.14566,0.53444 -1.65086,0.44547 -0.5052,-0.089 -0.96666,-0.70711 -1.39936,-0.98264 -0.43269,-0.27553 -1.18801,-0.4322 -1.48232,-0.85234 -0.29432,-0.42014 -0.18353,-1.18354 -0.29467,-1.68433 -0.11113,-0.50078 -0.53443,-1.14566 -0.44546,-1.65086 0.089,-0.50519 0.70711,-0.96666 0.98264,-1.39935 0.27552,-0.4327 0.4322,-1.18801 0.85234,-1.48233 z"
       inkscape:transform-center-x="3.8252977e-06"
       inkscape:transform-center-y="2.2494168e-06"
       transform="translate(1.9197264,-38.283849)" /></g></svg>
