<?xml version="1.0" encoding="UTF-8" standalone="no"?>
<!-- Created with Inkscape (http://www.inkscape.org/) -->

<svg
   width="27.941462mm"
   height="23.910192mm"
   viewBox="0 0 27.941462 23.910192"
   version="1.1"
   id="svg1"
   xml:space="preserve"
   inkscape:version="1.3.2 (091e20e, 2023-11-25, custom)"
   sodipodi:docname="hiker.svg"
   xmlns:inkscape="http://www.inkscape.org/namespaces/inkscape"
   xmlns:sodipodi="http://sodipodi.sourceforge.net/DTD/sodipodi-0.dtd"
   xmlns="http://www.w3.org/2000/svg"
   xmlns:svg="http://www.w3.org/2000/svg"><sodipodi:namedview
     id="namedview1"
     pagecolor="#ffffff"
     bordercolor="#666666"
     borderopacity="1.0"
     inkscape:showpageshadow="2"
     inkscape:pageopacity="0.0"
     inkscape:pagecheckerboard="0"
     inkscape:deskcolor="#d1d1d1"
     inkscape:document-units="mm"
     inkscape:zoom="0.73139036"
     inkscape:cx="221.49595"
     inkscape:cy="-592.70675"
     inkscape:window-width="1920"
     inkscape:window-height="1017"
     inkscape:window-x="-8"
     inkscape:window-y="-8"
     inkscape:window-maximized="1"
     inkscape:current-layer="layer2" /><defs
     id="defs1" /><g
     inkscape:groupmode="layer"
     id="layer2"
     inkscape:label="Layer 2"
     transform="translate(-208.93139,148.82652)"><path
       style="fill:#a8a8a8;stroke:#000000;stroke-width:1;stroke-linecap:butt;stroke-linejoin:miter;stroke-dasharray:none;stroke-opacity:1"
       d="m 215.72544,-142.91817 -1.49634,-1.14447 -2.54875,-0.40956 -0.90029,2.37282 -1.17154,1.57186 3.20849,2.80784 2.94004,-1.51131 1.49372,-1.94161 z"
       id="path236"
       sodipodi:nodetypes="ccccccccc" /><path
       style="fill:#a8a8a8;stroke:#000000;stroke-width:1;stroke-linecap:butt;stroke-linejoin:miter;stroke-dasharray:none;stroke-opacity:1"
       d="m 234.55927,-144.50069 -2.15872,-3.67196 -3.45428,1.7028 -4.93055,0.62127 -2.3861,3.31704 2.40882,6.44024 7.44528,-0.66012 4.78281,-2.79371 z"
       id="path237"
       sodipodi:nodetypes="ccccccccc" /><path
       style="fill:#a8a8a8;stroke:#000000;stroke-width:1;stroke-linecap:butt;stroke-linejoin:miter;stroke-dasharray:none;stroke-opacity:1"
       d="m 216.21678,-131.32569 -1.78921,1.07353 0.55303,1.20365 -0.61809,1.17111 2.30971,0.39038 2.27717,-1.10605 -0.61809,-2.11453 -1.52896,-1.10605 z"
       id="path238" /><path
       style="fill:#a8a8a8;stroke:#000000;stroke-width:1;stroke-linecap:butt;stroke-linejoin:miter;stroke-dasharray:none;stroke-opacity:1"
       d="m 220.75231,-136.68419 -1.90306,-0.93984 -1.16069,0.63829 -1.11667,0.26724 -0.31892,1.53246 1.2672,2.19159 2.06451,-0.76879 0.99306,-1.60466 z"
       id="path239"
       sodipodi:nodetypes="ccccccccc" /><path
       style="fill:#a8a8a8;stroke:#000000;stroke-width:1;stroke-linecap:butt;stroke-linejoin:miter;stroke-dasharray:none;stroke-opacity:1"
       d="m 225.22756,-132.86556 -3.46293,2.07775 1.07036,2.32961 -1.19628,2.26664 4.47032,0.75555 4.40737,-2.14072 -1.19629,-4.09255 -2.95923,-2.14072 z"
       id="path240" /></g></svg>
