<?xml version="1.0" encoding="UTF-8" standalone="no"?>
<!-- Created with Inkscape (http://www.inkscape.org/) -->

<svg
   width="16.402987mm"
   height="5.0927935mm"
   viewBox="0 0 16.402987 5.0927935"
   version="1.1"
   id="svg1"
   xml:space="preserve"
   inkscape:version="1.3.2 (091e20e, 2023-11-25, custom)"
   sodipodi:docname="hiker.svg"
   xmlns:inkscape="http://www.inkscape.org/namespaces/inkscape"
   xmlns:sodipodi="http://sodipodi.sourceforge.net/DTD/sodipodi-0.dtd"
   xmlns="http://www.w3.org/2000/svg"
   xmlns:svg="http://www.w3.org/2000/svg"><sodipodi:namedview
     id="namedview1"
     pagecolor="#ffffff"
     bordercolor="#666666"
     borderopacity="1.0"
     inkscape:showpageshadow="2"
     inkscape:pageopacity="0.0"
     inkscape:pagecheckerboard="0"
     inkscape:deskcolor="#d1d1d1"
     inkscape:document-units="mm"
     inkscape:zoom="0.73139035"
     inkscape:cx="921.53253"
     inkscape:cy="-710.29102"
     inkscape:window-width="1920"
     inkscape:window-height="1017"
     inkscape:window-x="-8"
     inkscape:window-y="-8"
     inkscape:window-maximized="1"
     inkscape:current-layer="layer2" /><defs
     id="defs1" /><g
     inkscape:groupmode="layer"
     id="layer2"
     inkscape:label="Layer 2"
     transform="translate(-204.61066,212.25851)"><path
       id="path161"
       style="fill:#b27624;stroke:#000000;stroke-linecap:round;paint-order:markers fill stroke"
       d="m 205.77814,-211.75813 c -0.19952,-0.006 -0.59908,0.33185 -0.60358,0.46715 l -0.0636,1.89704 c -0.006,0.18041 0.28749,0.708 0.68213,0.678 l 4.37751,-0.33332 0.31975,0.68882 c 0.30008,0.64644 0.17835,0.49883 0.55581,0.58779 l 0.40705,0.0959 c 0.37746,0.0889 0.6997,-0.3119 0.6997,-0.6997 v -0.81649 l 3.81114,-0.0558 3.83491,0.18087 c 0.39567,-0.01 0.71468,-0.14557 0.71468,-0.32608 v -1.19372 c 0,-0.18051 -0.3194,-0.30556 -0.71468,-0.32556 l -13.90975,-0.70384 c 0,-0.0989 -0.0446,-0.13897 -0.1111,-0.14107 z"
       sodipodi:nodetypes="sccccsssscccssscs" /></g></svg>
