<?xml version="1.0" encoding="UTF-8" standalone="no"?>
<!-- Created with Inkscape (http://www.inkscape.org/) -->

<svg
   width="31.297911mm"
   height="31.413443mm"
   viewBox="0 0 31.297911 31.413443"
   version="1.1"
   id="svg1"
   xml:space="preserve"
   inkscape:version="1.3.2 (091e20e, 2023-11-25, custom)"
   sodipodi:docname="hiker.svg"
   xmlns:inkscape="http://www.inkscape.org/namespaces/inkscape"
   xmlns:sodipodi="http://sodipodi.sourceforge.net/DTD/sodipodi-0.dtd"
   xmlns="http://www.w3.org/2000/svg"
   xmlns:svg="http://www.w3.org/2000/svg"><sodipodi:namedview
     id="namedview1"
     pagecolor="#ffffff"
     bordercolor="#666666"
     borderopacity="1.0"
     inkscape:showpageshadow="2"
     inkscape:pageopacity="0.0"
     inkscape:pagecheckerboard="0"
     inkscape:deskcolor="#d1d1d1"
     inkscape:document-units="mm"
     inkscape:zoom="0.73139035"
     inkscape:cx="921.53253"
     inkscape:cy="-710.29102"
     inkscape:window-width="1920"
     inkscape:window-height="1017"
     inkscape:window-x="-8"
     inkscape:window-y="-8"
     inkscape:window-maximized="1"
     inkscape:current-layer="layer2" /><defs
     id="defs1" /><g
     inkscape:groupmode="layer"
     id="layer2"
     inkscape:label="Layer 2"
     transform="translate(-247.88921,253.0691)"><path
       id="path154"
       style="fill:#095ba6;stroke:none;stroke-linecap:round;paint-order:markers fill stroke"
       d="m 279.00005,-237.21107 c 0.31464,2.88132 0.57229,7.52729 -2.22001,8.20397 -5.44344,1.31916 -7.34602,7.35144 -13.3354,7.35144 -3.98642,0 -10.20013,-0.47113 -11.09875,-4.05577 -1.09941,-4.38561 -4.45667,-6.89504 -4.45667,-11.49964 0,-3.1835 0.12049,-8.59342 1.67102,-11.11648 1.08781,-1.77011 1.80788,-2.89314 3.78939,-4.05598 2.16938,-1.2731 7.26887,-0.38296 10.09501,-0.38296 2.54112,0 5.11706,0.24008 7.42619,1.70214 0.62388,0.39502 3.69154,2.66407 4.2202,3.02206 4.12993,2.79663 3.3268,5.49957 3.90902,10.83122 z"
       sodipodi:nodetypes="sssssssssss" /></g></svg>
