<?xml version="1.0" encoding="UTF-8" standalone="no"?>
<!-- Created with Inkscape (http://www.inkscape.org/) -->

<svg
   width="69.298157mm"
   height="62.391605mm"
   viewBox="0 0 69.298157 62.391605"
   version="1.1"
   id="svg1"
   xml:space="preserve"
   inkscape:version="1.3.2 (091e20e, 2023-11-25, custom)"
   sodipodi:docname="hiker.svg"
   xmlns:inkscape="http://www.inkscape.org/namespaces/inkscape"
   xmlns:sodipodi="http://sodipodi.sourceforge.net/DTD/sodipodi-0.dtd"
   xmlns="http://www.w3.org/2000/svg"
   xmlns:svg="http://www.w3.org/2000/svg"><sodipodi:namedview
     id="namedview1"
     pagecolor="#ffffff"
     bordercolor="#666666"
     borderopacity="1.0"
     inkscape:showpageshadow="2"
     inkscape:pageopacity="0.0"
     inkscape:pagecheckerboard="0"
     inkscape:deskcolor="#d1d1d1"
     inkscape:document-units="mm"
     inkscape:zoom="1.4627807"
     inkscape:cx="1051.4221"
     inkscape:cy="-741.39616"
     inkscape:window-width="1920"
     inkscape:window-height="1017"
     inkscape:window-x="-8"
     inkscape:window-y="-8"
     inkscape:window-maximized="1"
     inkscape:current-layer="layer2" /><defs
     id="defs1" /><g
     inkscape:groupmode="layer"
     id="layer2"
     inkscape:label="Layer 2"
     transform="translate(-243.78792,374.22188)"><path
       id="path181"
       style="fill:#70bc1f;fill-opacity:1;stroke:#000000;stroke-width:1;stroke-linecap:round;stroke-dasharray:none;paint-order:markers fill stroke"
       d="m 269.35617,-373.72189 a 6.6507649,6.6507649 0 0 0 -6.32571,4.62711 8.5692558,8.5692558 0 0 0 -8.2548,8.54676 8.5692558,8.5692558 0 0 0 1.01441,3.99976 8.9529533,8.9529533 0 0 0 -2.76986,3.42459 11.638839,11.638839 0 0 0 -8.73228,11.24893 11.638839,11.638839 0 0 0 11.63857,11.63857 11.638839,11.638839 0 0 0 1.42627,-0.10181 9.8482485,9.8482485 0 0 0 5.16454,3.75843 13.30153,13.30153 0 0 0 -0.0677,0.94775 13.30153,13.30153 0 0 0 13.30152,13.30151 13.30153,13.30153 0 0 0 10.0893,-4.64003 7.5460606,7.5460606 0 0 0 2.06086,0.29146 7.5460606,7.5460606 0 0 0 7.05797,-4.93097 10.487745,10.487745 0 0 0 5.09271,1.34979 10.487745,10.487745 0 0 0 10.48773,-10.48773 10.487745,10.487745 0 0 0 -3.02307,-7.36493 10.999343,10.999343 0 0 0 5.06946,-9.26196 10.999343,10.999343 0 0 0 -10.99933,-10.99933 10.999343,10.999343 0 0 0 -1.02733,0.0734 7.6739597,7.6739597 0 0 0 -2.17092,-3.62717 8.8250542,8.8250542 0 0 0 0.12867,-1.43402 8.8250542,8.8250542 0 0 0 -8.8253,-8.8253 8.8250542,8.8250542 0 0 0 -4.64726,1.33325 7.8018589,7.8018589 0 0 0 -5.58468,-2.35644 7.8018589,7.8018589 0 0 0 -5.0276,1.84484 6.6507649,6.6507649 0 0 0 -5.07617,-2.35644 z" /></g></svg>
