<?xml version="1.0" encoding="UTF-8" standalone="no"?>
<!-- Created with Inkscape (http://www.inkscape.org/) -->

<svg
   width="58.11488mm"
   height="56.962997mm"
   viewBox="0 0 58.11488 56.962997"
   version="1.1"
   id="svg1"
   xml:space="preserve"
   inkscape:version="1.3.2 (091e20e, 2023-11-25, custom)"
   sodipodi:docname="hiker.svg"
   xmlns:inkscape="http://www.inkscape.org/namespaces/inkscape"
   xmlns:sodipodi="http://sodipodi.sourceforge.net/DTD/sodipodi-0.dtd"
   xmlns="http://www.w3.org/2000/svg"
   xmlns:svg="http://www.w3.org/2000/svg"><sodipodi:namedview
     id="namedview1"
     pagecolor="#ffffff"
     bordercolor="#666666"
     borderopacity="1.0"
     inkscape:showpageshadow="2"
     inkscape:pageopacity="0.0"
     inkscape:pagecheckerboard="0"
     inkscape:deskcolor="#d1d1d1"
     inkscape:document-units="mm"
     inkscape:zoom="1.4627807"
     inkscape:cx="1051.4221"
     inkscape:cy="-741.39616"
     inkscape:window-width="1920"
     inkscape:window-height="1017"
     inkscape:window-x="-8"
     inkscape:window-y="-8"
     inkscape:window-maximized="1"
     inkscape:current-layer="layer2" /><defs
     id="defs1" /><g
     inkscape:groupmode="layer"
     id="layer2"
     inkscape:label="Layer 2"
     transform="translate(-169.38938,338.17086)"><path
       id="path172"
       style="fill:#70bc1f;stroke:#000000;stroke-linecap:round;paint-order:markers fill stroke"
       d="m 180.90164,-337.67087 a 11.012448,10.2916 0 0 0 -11.01225,10.29136 11.012448,10.2916 0 0 0 3.74241,7.72304 12.118756,12.118756 0 0 0 -3.48971,8.46564 12.118756,12.118756 0 0 0 8.44341,11.53004 11.012448,10.2916 0 0 0 -1.64176,5.3821 11.012448,10.2916 0 0 0 11.01225,10.29136 11.012448,10.2916 0 0 0 8.28115,-3.51296 10.490864,10.490864 0 0 0 9.35705,5.79241 10.490864,10.490864 0 0 0 10.49083,-10.49083 10.490864,10.490864 0 0 0 -0.047,-0.65474 11.012448,10.2916 0 0 0 10.96625,-10.28826 11.012448,10.2916 0 0 0 -10.52648,-10.28051 9.043848,9.043848 0 0 0 -0.17984,-0.5793 9.4056025,9.4056025 0 0 0 5.57537,-8.58448 9.4056025,9.4056025 0 0 0 -9.40563,-9.40563 9.4056025,9.4056025 0 0 0 -8.20156,4.8488 10.671741,10.671741 0 0 0 -9.34362,-5.57227 10.671741,10.671741 0 0 0 -4.11396,0.84542 11.012448,10.2916 0 0 0 -9.90689,-5.80119 z" /></g></svg>
