<?xml version="1.0" encoding="UTF-8" standalone="no"?>
<!-- Created with Inkscape (http://www.inkscape.org/) -->

<svg
   width="52.338303mm"
   height="46.910961mm"
   viewBox="0 0 52.338303 46.910961"
   version="1.1"
   id="svg1"
   xml:space="preserve"
   inkscape:version="1.3.2 (091e20e, 2023-11-25, custom)"
   sodipodi:docname="hiker.svg"
   xmlns:inkscape="http://www.inkscape.org/namespaces/inkscape"
   xmlns:sodipodi="http://sodipodi.sourceforge.net/DTD/sodipodi-0.dtd"
   xmlns="http://www.w3.org/2000/svg"
   xmlns:svg="http://www.w3.org/2000/svg"><sodipodi:namedview
     id="namedview1"
     pagecolor="#ffffff"
     bordercolor="#666666"
     borderopacity="1.0"
     inkscape:showpageshadow="2"
     inkscape:pageopacity="0.0"
     inkscape:pagecheckerboard="0"
     inkscape:deskcolor="#d1d1d1"
     inkscape:document-units="mm"
     inkscape:zoom="1.4627807"
     inkscape:cx="1051.4221"
     inkscape:cy="-741.39616"
     inkscape:window-width="1920"
     inkscape:window-height="1017"
     inkscape:window-x="-8"
     inkscape:window-y="-8"
     inkscape:window-maximized="1"
     inkscape:current-layer="layer2" /><defs
     id="defs1" /><g
     inkscape:groupmode="layer"
     id="layer2"
     inkscape:label="Layer 2"
     transform="translate(-107.39849,298.23974)"><path
       id="path171"
       style="fill:#2f7e20;fill-opacity:1;stroke:#000000;stroke-width:1;stroke-linecap:round;stroke-dasharray:none;paint-order:markers fill stroke"
       inkscape:transform-center-x="0.58123172"
       inkscape:transform-center-y="-1.1545085"
       d="m 130.51448,-297.73929 a 8.3679278,8.3679278 0 0 0 -8.35558,8.1943 8.3679278,8.3679278 0 0 0 -0.91697,-0.0525 8.3679278,8.3679278 0 0 0 -8.36791,8.36792 8.3679278,8.3679278 0 0 0 0.72553,3.39422 8.3679278,8.3679278 0 0 0 -5.70106,7.91377 8.3679278,8.3679278 0 0 0 6.59108,8.15546 11.912326,11.912326 0 0 0 8.59179,5.78649 8.3679278,8.3679278 0 0 0 7.20697,4.15084 8.3679278,8.3679278 0 0 0 7.25173,-4.23216 c 0.13231,0.0182 0.2578,0.0211 0.36917,-0.009 0.18361,-0.0492 0.35859,-0.17712 0.52679,-0.36095 a 8.3679278,8.3679278 0 0 0 4.96959,1.6617 8.3679278,8.3679278 0 0 0 8.36791,-8.36791 8.3679278,8.3679278 0 0 0 -0.72691,-3.40519 8.3679278,8.3679278 0 0 0 8.19019,-8.35513 8.3679278,8.3679278 0 0 0 -8.36792,-8.36791 8.3679278,8.3679278 0 0 0 -2.0455,0.27139 8.3679278,8.3679278 0 0 0 -8.35786,-7.96082 8.3679278,8.3679278 0 0 0 -1.70145,0.19646 8.3679278,8.3679278 0 0 0 -8.24959,-6.98126 z" /></g></svg>
