<?xml version="1.0" encoding="UTF-8" standalone="no"?>
<!-- Created with Inkscape (http://www.inkscape.org/) -->

<svg
   width="27.421129mm"
   height="21.53516mm"
   viewBox="0 0 27.421129 21.53516"
   version="1.1"
   id="svg1"
   xml:space="preserve"
   inkscape:version="1.3.2 (091e20e, 2023-11-25, custom)"
   sodipodi:docname="hiker.svg"
   xmlns:inkscape="http://www.inkscape.org/namespaces/inkscape"
   xmlns:sodipodi="http://sodipodi.sourceforge.net/DTD/sodipodi-0.dtd"
   xmlns="http://www.w3.org/2000/svg"
   xmlns:svg="http://www.w3.org/2000/svg"><sodipodi:namedview
     id="namedview1"
     pagecolor="#ffffff"
     bordercolor="#666666"
     borderopacity="1.0"
     inkscape:showpageshadow="2"
     inkscape:pageopacity="0.0"
     inkscape:pagecheckerboard="0"
     inkscape:deskcolor="#d1d1d1"
     inkscape:document-units="mm"
     inkscape:zoom="1.0343422"
     inkscape:cx="672.89145"
     inkscape:cy="-31.420937"
     inkscape:window-width="1920"
     inkscape:window-height="1017"
     inkscape:window-x="-8"
     inkscape:window-y="-8"
     inkscape:window-maximized="1"
     inkscape:current-layer="layer2" /><defs
     id="defs1" /><g
     inkscape:groupmode="layer"
     id="layer2"
     inkscape:label="Layer 2"
     transform="translate(-274.55897,-84.469488)"><path
       id="path220"
       style="fill:#feba35;stroke:#000000;stroke-width:1;stroke-linecap:butt;stroke-linejoin:miter;stroke-dasharray:none;stroke-opacity:1"
       d="m 288.70612,84.969491 c -0.17854,0 -0.62468,0.08323 -0.62468,0.186678 l -3.15313,3.620166 -5.08766,0.05911 -1.71259,-2.682975 c -0.13959,-0.218671 -0.209,-0.468422 -0.46843,-0.468422 h -1.03122 c -0.25943,0 -0.46842,0.208996 -0.46842,0.468422 v 2.768017 c -0.41696,0.118296 -1.17334,0.572036 -1.09553,2.344189 0.0692,1.574729 0.72008,1.898865 1.09553,1.957696 v 2.894889 c 0,0.259426 0.20899,0.468078 0.46842,0.468078 h 1.03122 c 0.25943,0 0.32884,-0.249407 0.46843,-0.468078 l 1.84223,-2.886246 h 2.42197 c 0,0 2.41979,3.085695 3.07638,4.102072 1.18626,1.836297 1.84093,4.857513 2.36873,4.730903 6.51918,-0.0888 14.19255,1.37187 13.61158,-7.986011 -0.48401,-4.235037 -4.11417,-5.445114 -4.11417,-5.445114 l -0.51094,0.0059 v -1.715707 c 0,-0.259427 -0.20866,-0.468078 -0.46808,-0.468078 h -1.16639 c -0.35387,-0.420468 -1.38006,-1.485471 -1.52316,-1.485471 z" /><path
       id="path221"
       style="fill:#a8deeb;stroke:#000000;stroke-width:1;stroke-linecap:butt;stroke-linejoin:miter;stroke-dasharray:none;stroke-opacity:1"
       d="m 276.62832,85.684189 c -0.25943,0 -0.46819,0.208763 -0.46819,0.468189 v 2.768306 c -0.41696,0.118296 -1.17335,0.571892 -1.09554,2.344043 0.0692,1.574728 0.72009,1.898673 1.09554,1.957504 v 2.894913 c 0,0.259426 0.20876,0.468189 0.46819,0.468189 h 1.03146 c 0.25943,0 0.3286,-0.249518 0.46819,-0.468189 l 1.84226,-2.886128 h 2.42208 c 0,0 2.41971,3.085699 3.0763,4.102075 1.18625,1.836295 1.84104,4.857589 2.36884,4.730979 6.51918,-0.0888 14.19255,1.37179 13.61158,-7.986078 -0.48401,-4.235032 -4.11448,-5.445145 -4.11448,-5.445145 l -0.51056,0.0057 v -0.219625 c -0.0332,0.08614 -0.0721,0.154972 -0.11886,0.198954 -1.97401,0 -2.39102,2.198821 -11.77706,0.158647 l -5.08754,0.05891 -1.71256,-2.68304 c -0.13959,-0.218671 -0.20876,-0.468189 -0.46819,-0.468189 z" /><path
       id="path222"
       style="fill:#feba35;stroke:#000000;stroke-width:1;stroke-linecap:round;stroke-linejoin:round;stroke-dasharray:none;paint-order:markers fill stroke"
       d="m 289.65646,101.11994 c -0.3878,0 -0.70021,0.31242 -0.70021,0.70022 v 1.70428 c 0,0.11954 -0.065,0.3297 -0.42944,0.3297 h -1.77404 c -0.3878,0 -0.70022,0.31242 -0.70022,0.70022 v 0.22789 c 0,0.3878 0.31242,0.6997 0.70022,0.6997 h 11.60425 l 1.11863,0.0227 0.8092,-0.87704 c 0.26296,-0.28501 0.2902,-0.81124 0.016,-1.08545 l -0.16115,-0.16114 c -0.27422,-0.27421 -0.91853,-0.23587 -1.21372,0.0156 l -0.53698,0.45749 h -1.77701 c -0.20136,0.054 -0.23755,-0.21017 -0.23755,-0.3297 v -1.70429 c 0,-0.3878 -0.3119,-0.70021 -0.6997,-0.70021 h -0.51883 c -0.3878,0 -0.6997,0.31241 -0.6997,0.70021 v 1.70429 c 0,0.11953 0.0795,0.3297 -0.1736,0.3297 h -2.93015 c -0.57188,0 -0.47735,-0.21017 -0.47735,-0.3297 v -1.70429 c 0,-0.3878 -0.31241,-0.70021 -0.70021,-0.70021 z"
       sodipodi:nodetypes="ssscssssccssssccssssssccssss" /><path
       id="path223"
       style="fill:#feba35;stroke:#000000;stroke-width:1;stroke-linecap:butt;stroke-linejoin:miter;stroke-dasharray:none;stroke-opacity:1"
       d="m 276.62832,85.684189 c -0.25943,0 -0.46819,0.208763 -0.46819,0.468189 v 2.768306 c -0.41696,0.118296 -1.17335,0.571896 -1.09554,2.344043 0.0692,1.574726 0.72009,1.898673 1.09554,1.957504 v 2.894913 c 0,0.259426 0.20876,0.468189 0.46819,0.468189 h 1.03146 c 0.25943,0 0.3286,-0.249518 0.46819,-0.468189 l 1.84226,-2.886128 h 2.42208 c 0,0 2.41971,3.085701 3.0763,4.102075 1.18623,1.836291 1.84104,4.857589 2.36884,4.730979 5.06799,-0.069 10.83141,0.79576 12.87415,-3.211175 -0.94791,-0.121429 -2.23316,-0.332549 -3.40599,-0.690914 -2.30398,-0.703997 -0.47967,-9.255438 -0.60048,-9.544121 -1.97401,0 -2.39104,2.198817 -11.77706,0.158647 l -5.08754,0.05891 -1.71256,-2.68304 c -0.13959,-0.218671 -0.20876,-0.468189 -0.46819,-0.468189 z" /><path
       id="path224"
       style="fill:#fe370f;stroke:#000000;stroke-width:1;stroke-linecap:butt;stroke-linejoin:miter;stroke-dasharray:none;stroke-opacity:1"
       d="m 296.70513,88.61786 c -1.97401,0 -2.39105,2.198815 -11.77706,0.158647 l -4.95784,0.05736 h -0.004 l -3.80597,0.08682 c -0.41696,0.118296 -1.17335,0.571898 -1.09554,2.344043 0.0692,1.574725 0.72009,1.898673 1.09554,1.957504 l 3.8101,0.0088 h 2.42208 c 0,0 2.41971,3.085702 3.0763,4.102075 1.18622,1.836289 1.84104,4.857591 2.36884,4.730981 5.06799,-0.069 10.83142,0.79575 12.87415,-3.211177 -0.94791,-0.121429 -2.23316,-0.33255 -3.40599,-0.690914 -2.30398,-0.703997 -0.47967,-9.255438 -0.60048,-9.544121 z" /></g></svg>
