<?xml version="1.0" encoding="UTF-8" standalone="no"?>
<!-- Created with Inkscape (http://www.inkscape.org/) -->

<svg
   width="7.0178533mm"
   height="4.622005mm"
   viewBox="0 0 7.0178533 4.622005"
   version="1.1"
   id="svg1"
   xml:space="preserve"
   inkscape:version="1.3.2 (091e20e, 2023-11-25, custom)"
   sodipodi:docname="hiker.svg"
   xmlns:inkscape="http://www.inkscape.org/namespaces/inkscape"
   xmlns:sodipodi="http://sodipodi.sourceforge.net/DTD/sodipodi-0.dtd"
   xmlns="http://www.w3.org/2000/svg"
   xmlns:svg="http://www.w3.org/2000/svg"><sodipodi:namedview
     id="namedview1"
     pagecolor="#ffffff"
     bordercolor="#666666"
     borderopacity="1.0"
     inkscape:showpageshadow="2"
     inkscape:pageopacity="0.0"
     inkscape:pagecheckerboard="0"
     inkscape:deskcolor="#d1d1d1"
     inkscape:document-units="mm"
     inkscape:zoom="1.0343422"
     inkscape:cx="672.89145"
     inkscape:cy="-31.420937"
     inkscape:window-width="1920"
     inkscape:window-height="1017"
     inkscape:window-x="-8"
     inkscape:window-y="-8"
     inkscape:window-maximized="1"
     inkscape:current-layer="layer2" /><defs
     id="defs1" /><g
     inkscape:groupmode="layer"
     id="layer2"
     inkscape:label="Layer 2"
     transform="translate(-321.03211,-74.711439)"><path
       id="path226"
       style="fill:#a8a8a8;stroke:#000000;stroke-width:1;stroke-linecap:round;stroke-linejoin:round;stroke-dasharray:none;paint-order:markers fill stroke"
       d="m 323.25552,75.211436 c -0.3878,0 -1.7234,0.312416 -1.7234,0.700216 v 0.318327 c 0,0.387799 2.0995,0.794225 1.7234,0.699698 l -0.80963,-0.203487 c 0.86394,0.226097 1.14504,0.54481 1.14504,0.793116 v 0.614432 c 0,0.3878 0.3119,0.699699 0.6997,0.699699 h 0.61443 c 0.3878,0 0.70022,-0.311899 0.70022,-0.699699 v -0.614432 c 0,-0.248306 0.157,-0.54441 0.78392,-0.725287 l -0.41875,0.135658 c -0.36892,0.119516 1.57953,-0.311899 1.57953,-0.699698 v -0.318327 c 0,-0.3878 -1.19173,-0.700216 -1.57953,-0.700216 z"
       sodipodi:nodetypes="sssscsssssscsssss"
       inkscape:export-filename="..\Godot\Games\2025 Monthly\february\graphics\game_over\helicopter\helicopter_rotor_top.svg"
       inkscape:export-xdpi="22.4"
       inkscape:export-ydpi="22.4" /></g></svg>
