<?xml version="1.0" encoding="UTF-8" standalone="no"?>
<!-- Created with Inkscape (http://www.inkscape.org/) -->

<svg
   width="9.1479721mm"
   height="8.9163733mm"
   viewBox="0 0 9.1479721 8.9163733"
   version="1.1"
   id="svg1"
   xml:space="preserve"
   inkscape:version="1.3.2 (091e20e, 2023-11-25, custom)"
   sodipodi:docname="hiker.svg"
   xmlns:inkscape="http://www.inkscape.org/namespaces/inkscape"
   xmlns:sodipodi="http://sodipodi.sourceforge.net/DTD/sodipodi-0.dtd"
   xmlns="http://www.w3.org/2000/svg"
   xmlns:svg="http://www.w3.org/2000/svg"><sodipodi:namedview
     id="namedview1"
     pagecolor="#ffffff"
     bordercolor="#666666"
     borderopacity="1.0"
     inkscape:showpageshadow="2"
     inkscape:pageopacity="0.0"
     inkscape:pagecheckerboard="0"
     inkscape:deskcolor="#d1d1d1"
     inkscape:document-units="mm"
     inkscape:zoom="1.0343422"
     inkscape:cx="672.89145"
     inkscape:cy="-31.420937"
     inkscape:window-width="1920"
     inkscape:window-height="1017"
     inkscape:window-x="-8"
     inkscape:window-y="-8"
     inkscape:window-maximized="1"
     inkscape:current-layer="layer2" /><defs
     id="defs1" /><g
     inkscape:groupmode="layer"
     id="layer2"
     inkscape:label="Layer 2"
     transform="translate(-263.79856,-72.190466)"><path
       id="path225"
       style="fill:#a8a8a8;stroke:#000000;stroke-width:1;stroke-linecap:round;stroke-linejoin:round;stroke-dasharray:none;paint-order:markers fill stroke"
       d="m 271.38267,72.784947 c -0.37001,-0.300132 -1.2519,0.177822 -1.55203,0.547828 l -1.69814,2.093498 -2.09301,-1.697744 c -0.37,-0.300126 -1.30679,-0.566611 -1.60692,-0.196606 l -0.0364,0.04487 c -0.30013,0.370005 0.15348,1.232158 0.52348,1.532284 l 2.09301,1.697744 -1.69814,2.093499 c -0.30013,0.370006 -0.52544,1.257034 -0.15543,1.557166 l 0.0449,0.03641 c 0.37,0.30012 1.19147,-0.103331 1.4916,-0.473337 l 1.69814,-2.093499 2.093,1.697738 c 0.37001,0.300132 1.5493,0.762509 1.84943,0.392503 l 0.0364,-0.04487 c 0.30013,-0.370006 -0.39599,-1.42805 -0.766,-1.728182 l -2.093,-1.697738 1.69814,-2.093498 c 0.30013,-0.370005 0.58586,-1.331537 0.21587,-1.631656 z"
       sodipodi:nodetypes="sscsssscsssscsssscsss" /></g></svg>
