<?xml version="1.0" encoding="UTF-8" standalone="no"?>
<!-- Created with Inkscape (http://www.inkscape.org/) -->

<svg
   width="16.01535mm"
   height="18.945065mm"
   viewBox="0 0 16.01535 18.945065"
   version="1.1"
   id="svg1"
   xml:space="preserve"
   inkscape:version="1.3.2 (091e20e, 2023-11-25, custom)"
   sodipodi:docname="hiker.svg"
   xmlns:inkscape="http://www.inkscape.org/namespaces/inkscape"
   xmlns:sodipodi="http://sodipodi.sourceforge.net/DTD/sodipodi-0.dtd"
   xmlns="http://www.w3.org/2000/svg"
   xmlns:svg="http://www.w3.org/2000/svg"><sodipodi:namedview
     id="namedview1"
     pagecolor="#ffffff"
     bordercolor="#666666"
     borderopacity="1.0"
     inkscape:showpageshadow="2"
     inkscape:pageopacity="0.0"
     inkscape:pagecheckerboard="0"
     inkscape:deskcolor="#d1d1d1"
     inkscape:document-units="mm"
     inkscape:zoom="2.0686842"
     inkscape:cx="565.33521"
     inkscape:cy="242.42463"
     inkscape:window-width="1920"
     inkscape:window-height="1017"
     inkscape:window-x="-8"
     inkscape:window-y="-8"
     inkscape:window-maximized="1"
     inkscape:current-layer="layer2" /><defs
     id="defs1" /><g
     inkscape:groupmode="layer"
     id="layer2"
     inkscape:label="Layer 2"
     transform="translate(-177.77881,-68.214155)"><path
       id="path84"
       style="fill:#70bc1f;stroke:#000000;stroke-width:1;stroke-linecap:round;stroke-linejoin:round;stroke-dasharray:none;paint-order:markers fill stroke"
       d="m 180.19124,68.714162 h 11.08055 c 0.0786,0 0.55757,0.09346 0.63203,0.131704 1.339,0.687757 2.00706,3.126864 0,5.360814 -0.0635,0.07071 -0.44209,0.147669 -0.52061,0.148755 l -11.19197,0.153387 c -0.0786,0.0011 -0.0707,-0.166016 -0.14181,-0.216922 -1.64768,-1.178548 -2.59955,-2.842037 -0.80218,-5.292642 0.0586,-0.07996 0.86545,-0.285094 0.94399,-0.285094 z"
       sodipodi:nodetypes="sssssssss"
       inkscape:export-filename="..\Godot\Games\2025 Monthly\february\graphics\hiker.svg"
       inkscape:export-xdpi="22.4"
       inkscape:export-ydpi="22.4" /><path
       id="path85"
       style="fill:#b27624;stroke:#000000;stroke-width:1;stroke-linecap:round;stroke-linejoin:round;stroke-dasharray:none;paint-order:markers fill stroke"
       d="m 180.58396,73.456042 c 4.99403,-8.287626 8.98663,-0.611052 10.9503,0 0.10704,0.03332 0.15905,0.09896 0.20236,0.202369 1.05256,2.512698 2.909,4.637314 0,9.062485 -0.0615,0.09369 -0.0988,0.159516 -0.20236,0.20237 -3.51171,1.453157 -7.15215,1.554538 -10.9503,0 -0.10384,-0.04248 -0.13768,-0.110795 -0.20237,-0.20237 -1.96719,-2.784767 -1.60659,-5.848866 0,-9.062485 0.0501,-0.100281 0.14452,-0.106376 0.20237,-0.202369 z"
       sodipodi:nodetypes="sssssssss" /><path
       id="path90"
       style="fill:#d15400;stroke:#000000;stroke-linecap:round;stroke-linejoin:round;paint-order:markers fill stroke"
       d="m 185.34321,81.52483 c -0.0208,-0.07703 -0.0969,-0.103639 -0.17658,-0.101978 l -1.32375,0.02701 c -0.24298,0.005 -0.4607,0.486727 -1.27451,0.652609 -0.91258,0.244524 -0.6817,0.975926 -0.43718,1.8885 0.24452,0.912579 0.74117,2.896349 1.65374,2.651817 2.62264,-0.702724 1.14202,-2.013234 0.63581,-2.93413 l 1.26736,-0.339593 c 0.0771,-0.02064 0.12256,-0.09961 0.10198,-0.176581 z"
       sodipodi:nodetypes="sssssscsss" /><path
       id="path86"
       style="fill:#d15400;stroke:#000000;stroke-linecap:round;stroke-linejoin:round;paint-order:markers fill stroke"
       d="m 186.57643,83.030784 c -0.069,0.03987 -0.075,0.120382 -0.0528,0.196949 l 0.36869,1.271648 c 0.0677,0.233426 0.58939,0.319024 0.96025,1.062182 0.47238,0.818193 1.11911,0.405876 1.93729,-0.06651 0.81821,-0.472389 2.60582,-1.465546 2.13345,-2.283742 -1.35759,-2.351389 -2.24022,-0.582001 -2.99872,0.145263 l -0.65603,-1.13628 c -0.0399,-0.06903 -0.12795,-0.09261 -0.19695,-0.05277 z"
       sodipodi:nodetypes="sssssscsss" /><path
       id="path87"
       style="fill:#2584bb;stroke:#000000;stroke-linecap:round;stroke-linejoin:round;paint-order:markers fill stroke"
       d="m 189.96072,81.693821 c 0,1.924855 -1.5604,3.485259 -3.48526,3.485257 -1.92485,-4e-6 -3.48525,-1.560405 -3.48525,-3.485257 0,-1.924852 1.5604,-5.211894 3.48525,-5.211898 1.92486,-2e-6 3.48526,3.287043 3.48526,5.211898 z"
       sodipodi:nodetypes="sssss" /><path
       style="fill:none;stroke:#b27624;stroke-width:1;stroke-linecap:round;stroke-linejoin:miter;stroke-dasharray:none;stroke-opacity:1"
       d="m 188.35292,78.450399 c 0,0 -1.45735,1.677968 -0.96379,3.473149 0.2881,1.047898 3.79517,-0.65815 3.79517,-0.65815"
       id="path88"
       sodipodi:nodetypes="csc" /><path
       style="fill:#fe9e32;stroke:#000000;stroke-width:1;stroke-linecap:butt;stroke-linejoin:miter;stroke-dasharray:none;stroke-opacity:1"
       d="m 188.83335,80.312168 c 0,0 -0.0791,-0.542631 0.28262,-0.678288 0.36176,-0.135657 0.89937,-0.170377 1.02373,0.02181 0.12435,0.192183 0.67861,1.11038 0.67861,1.11038 1.01766,1.396844 -0.54681,2.785493 -0.56055,2.790582 -0.30523,0.113049 -1.36788,0.237403 -1.36788,0.237403 0,0 -1.03285,0.317906 -0.96502,-0.269945 0.0678,-0.587851 0.37012,-0.515547 0.27543,-0.747489 -0.0772,-0.189102 -0.59468,-0.07253 -0.65124,-0.361185 -0.12507,-0.638336 0.4488,-0.767561 0.45574,-0.847863 0.0184,-0.212441 -0.61401,-0.137027 -0.5914,-0.464866 0.008,-0.458051 0.34902,-0.564177 0.74168,-0.700097 z"
       id="path92"
       sodipodi:nodetypes="csscscssssscc" /><path
       style="fill:none;stroke:#b27624;stroke-width:1;stroke-linecap:round;stroke-linejoin:miter;stroke-dasharray:none;stroke-opacity:1"
       d="m 185.58745,79.384566 c 0,0 0.86817,2.627499 0.65048,3.585728 -0.2931,1.29017 -2.07477,1.01062 -2.07477,1.01062"
       id="path89"
       sodipodi:nodetypes="csc" /><path
       style="fill:#fe9e32;stroke:#000000;stroke-width:1;stroke-linecap:butt;stroke-linejoin:miter;stroke-dasharray:none;stroke-opacity:1"
       d="m 184.39669,80.957429 c 0,0 0.0126,-0.54822 -0.36289,-0.638948 -0.37556,-0.09072 -0.91341,-0.0599 -1.01351,0.145965 -0.10009,0.205861 -0.53875,1.184569 -0.53875,1.184569 -0.8405,1.510086 0.88102,2.698477 0.89528,2.70186 0.3167,0.07515 1.38658,0.06954 1.38658,0.06954 0,0 1.06381,0.190129 0.9251,-0.385134 -0.13868,-0.575267 -0.42999,-0.466786 -0.36416,-0.708511 0.0537,-0.197077 0.58147,-0.144208 0.60256,-0.437595 0.0466,-0.6488 -0.53869,-0.70738 -0.55533,-0.786245 -0.0441,-0.208635 0.59283,-0.210575 0.53057,-0.533243 -0.0636,-0.453689 -0.41495,-0.517618 -0.8212,-0.60485 z"
       id="path93"
       sodipodi:nodetypes="csscscssssscc" /><circle
       style="fill:#fe9e32;fill-opacity:1;stroke:#000000;stroke-width:1;stroke-linecap:round;stroke-linejoin:round;stroke-dasharray:none;stroke-opacity:1;paint-order:markers fill stroke"
       id="circle89"
       cx="186.14888"
       cy="77.352493"
       r="4.6123629" /><ellipse
       style="fill:#000000;fill-opacity:1;stroke:none;stroke-width:0.739709;stroke-linecap:round;stroke-linejoin:round;stroke-dasharray:none;stroke-opacity:1;paint-order:markers fill stroke"
       id="ellipse90"
       cx="186.23563"
       cy="78.592262"
       rx="0.87930793"
       ry="0.92727023" /><ellipse
       style="fill:#000000;fill-opacity:1;stroke:none;stroke-width:0.739709;stroke-linecap:round;stroke-linejoin:round;stroke-dasharray:none;stroke-opacity:1;paint-order:markers fill stroke"
       id="ellipse91"
       cx="188.95349"
       cy="78.080658"
       rx="0.87930793"
       ry="0.92727023" /><circle
       style="fill:#f64a8a;fill-opacity:1;stroke:#000000;stroke-width:1;stroke-linecap:round;stroke-linejoin:round;stroke-dasharray:none;stroke-opacity:1;paint-order:markers fill stroke"
       id="circle91"
       cx="188.0742"
       cy="79.77533"
       r="1.4068928" /><path
       id="path91"
       style="fill:#ed171f;stroke:#000000;stroke-width:1;stroke-linecap:round;stroke-linejoin:round;stroke-dasharray:none;paint-order:markers fill stroke"
       d="m 186.73296,72.884598 c -0.3412,-0.412587 -2.42987,-0.475716 -3.02875,-0.475718 -1.06131,-4e-6 -2.01755,1.563761 -2.01755,2.62507 0,1.061308 -0.79035,2.511972 0.813,1.714773 0.40473,-0.201235 2.14566,-0.547091 2.92208,-0.99536 1.22338,-0.706318 1.50222,-0.587012 1.8623,-0.773131 1.40816,-0.804877 2.627,-0.0033 3.79533,-0.969002 0.46926,-3.623827 -2.80801,-0.91767 -4.34641,-1.126632 z"
       sodipodi:nodetypes="cssssscc" /></g></svg>
