<?xml version="1.0" encoding="UTF-8" standalone="no"?>
<!-- Created with Inkscape (http://www.inkscape.org/) -->

<svg
   width="25.707893mm"
   height="9.2359676mm"
   viewBox="0 0 25.707893 9.2359676"
   version="1.1"
   id="svg1"
   xml:space="preserve"
   inkscape:version="1.3.2 (091e20e, 2023-11-25, custom)"
   sodipodi:docname="hiker.svg"
   xmlns:inkscape="http://www.inkscape.org/namespaces/inkscape"
   xmlns:sodipodi="http://sodipodi.sourceforge.net/DTD/sodipodi-0.dtd"
   xmlns="http://www.w3.org/2000/svg"
   xmlns:svg="http://www.w3.org/2000/svg"><sodipodi:namedview
     id="namedview1"
     pagecolor="#ffffff"
     bordercolor="#666666"
     borderopacity="1.0"
     inkscape:showpageshadow="2"
     inkscape:pageopacity="0.0"
     inkscape:pagecheckerboard="0"
     inkscape:deskcolor="#d1d1d1"
     inkscape:document-units="mm"
     inkscape:zoom="1.4627807"
     inkscape:cx="92.973608"
     inkscape:cy="-377.02165"
     inkscape:window-width="1920"
     inkscape:window-height="1017"
     inkscape:window-x="-8"
     inkscape:window-y="-8"
     inkscape:window-maximized="1"
     inkscape:current-layer="layer2" /><defs
     id="defs1" /><g
     inkscape:groupmode="layer"
     id="layer2"
     inkscape:label="Layer 2"
     transform="translate(-16.460482,86.434537)"><rect
       style="fill:none;stroke:#70bc1f;stroke-width:1;stroke-linecap:round;stroke-dasharray:none;paint-order:markers fill stroke"
       id="rect108"
       width="24.707895"
       height="8.2359648"
       x="16.960482"
       y="-85.934532"
       rx="0.32574323"
       ry="0.32574323" /><path
       d="m 20.399851,-80.365192 h 0.322525 v -2.902721 h -0.322525 v -1.05788 h 2.831766 q 0.832113,0 1.270746,0.361227 0.438633,0.354777 0.438633,1.154638 0,0.799861 -0.438633,1.161088 -0.438633,0.354777 -1.270746,0.354777 h -0.703104 v 0.928871 h 0.619247 v 1.05788 h -2.747909 z m 2.347979,-1.844841 q 0.374128,0 0.374128,-0.412831 v -0.232218 q 0,-0.212866 -0.09676,-0.309623 -0.09031,-0.103208 -0.277371,-0.103208 H 22.52851 v 1.05788 z m 6.502097,1.844841 h 0.258019 v 1.05788 h -2.528592 v -1.05788 h 0.38703 l -0.103208,-0.51604 h -0.877267 l -0.103208,0.51604 h 0.38703 v 1.05788 h -2.206068 v -1.05788 h 0.25802 l 1.090132,-3.960601 h 2.347979 z m -2.722107,-1.199792 h 0.593445 l -0.26447,-1.283647 h -0.06451 z m 5.186192,2.347979 q -0.619247,0 -1.173989,-0.103208 -0.548292,-0.109658 -0.845015,-0.245119 v -1.277197 h 1.419108 q 0,0.199966 0.09031,0.290272 0.09031,0.09031 0.328975,0.09031 0.199965,0 0.283822,-0.05805 0.09031,-0.0645 0.09031,-0.187064 0,-0.103208 -0.08386,-0.174164 -0.08386,-0.0774 -0.290272,-0.154811 l -0.554742,-0.193515 q -0.716005,-0.270921 -1.032079,-0.638599 -0.309623,-0.367677 -0.309623,-0.993375 0,-0.761158 0.496688,-1.154638 0.503138,-0.39993 1.670677,-0.39993 0.561192,0 1.051429,0.116109 0.496688,0.109658 0.799861,0.296722 v 1.154638 h -1.290098 q 0,-0.322525 -0.39993,-0.322525 -0.193515,0 -0.277371,0.0516 -0.07741,0.04515 -0.07741,0.167713 0,0.109658 0.09031,0.174163 0.09676,0.0645 0.309623,0.135461 l 0.561193,0.193514 q 0.683752,0.232218 0.993375,0.606346 0.316074,0.367678 0.316074,0.967574 0,0.819212 -0.554742,1.238494 -0.548291,0.419282 -1.612622,0.419282 z m 4.347629,0 q -0.619247,0 -1.173989,-0.103208 -0.548292,-0.109658 -0.845014,-0.245119 v -1.277197 h 1.419108 q 0,0.199966 0.09031,0.290272 0.09031,0.09031 0.328975,0.09031 0.199965,0 0.283821,-0.05805 0.09031,-0.0645 0.09031,-0.187064 0,-0.103208 -0.08386,-0.174164 -0.08386,-0.0774 -0.290272,-0.154811 l -0.554743,-0.193515 q -0.716004,-0.270921 -1.032078,-0.638599 -0.309623,-0.367677 -0.309623,-0.993375 0,-0.761158 0.496687,-1.154638 0.503138,-0.39993 1.670677,-0.39993 0.561193,0 1.05143,0.116109 0.496688,0.109658 0.799861,0.296722 v 1.154638 h -1.290098 q 0,-0.322525 -0.399931,-0.322525 -0.193514,0 -0.277371,0.0516 -0.07741,0.04515 -0.07741,0.167713 0,0.109658 0.09031,0.174163 0.09676,0.0645 0.309624,0.135461 l 0.561192,0.193514 q 0.683752,0.232218 0.993376,0.606346 0.316074,0.367678 0.316074,0.967574 0,0.819212 -0.554742,1.238494 -0.548292,0.419282 -1.612623,0.419282 z"
       id="text108"
       style="font-size:6.45049px;line-height:1.25;font-family:'Alfa Slab One';-inkscape-font-specification:'Alfa Slab One, Normal';letter-spacing:0px;word-spacing:0px;fill:#70bc1f;stroke-width:0.0383656"
       aria-label="PASS" /></g></svg>
