<?xml version="1.0" encoding="UTF-8" standalone="no"?>
<!-- Created with Inkscape (http://www.inkscape.org/) -->

<svg
   width="6.876389mm"
   height="6.8763895mm"
   viewBox="0 0 6.876389 6.8763895"
   version="1.1"
   id="svg1"
   xml:space="preserve"
   inkscape:version="1.3.2 (091e20e, 2023-11-25, custom)"
   sodipodi:docname="hiker.svg"
   xmlns:inkscape="http://www.inkscape.org/namespaces/inkscape"
   xmlns:sodipodi="http://sodipodi.sourceforge.net/DTD/sodipodi-0.dtd"
   xmlns="http://www.w3.org/2000/svg"
   xmlns:svg="http://www.w3.org/2000/svg"><sodipodi:namedview
     id="namedview1"
     pagecolor="#ffffff"
     bordercolor="#666666"
     borderopacity="1.0"
     inkscape:showpageshadow="2"
     inkscape:pageopacity="0.0"
     inkscape:pagecheckerboard="0"
     inkscape:deskcolor="#d1d1d1"
     inkscape:document-units="mm"
     inkscape:zoom="2.9255614"
     inkscape:cx="-217.56508"
     inkscape:cy="2.5636105"
     inkscape:window-width="1920"
     inkscape:window-height="1017"
     inkscape:window-x="-8"
     inkscape:window-y="-8"
     inkscape:window-maximized="1"
     inkscape:current-layer="layer2" /><defs
     id="defs1" /><g
     inkscape:groupmode="layer"
     id="layer2"
     inkscape:label="Layer 2"
     transform="translate(-46.802026,33.216746)"><rect
       style="fill:#f0f0f0;stroke:#000000;stroke-width:0.5;stroke-linecap:round;stroke-linejoin:round;stroke-dasharray:none;paint-order:markers fill stroke"
       id="rect2"
       width="6.37639"
       height="6.37639"
       x="47.052025"
       y="-32.966747"
       rx="0.98077106"
       ry="0.98077106"
       inkscape:export-filename="..\Godot\Games\2025 Monthly\february\graphics\icons\event.svg"
       inkscape:export-xdpi="22.4"
       inkscape:export-ydpi="22.4" /><g
       id="g42"
       transform="rotate(42.823808,50.272044,-29.825575)"><path
         id="path2"
         style="fill:#70bc1f;stroke:#000000;stroke-width:0.5;stroke-linecap:round;stroke-linejoin:round;stroke-dasharray:none;paint-order:markers fill stroke"
         d="m 49.830794,-32.188381 c -1.663779,0 0.26359,1.968804 0.432326,1.968804 0.151266,0 2.133173,-1.968804 0.432494,-1.968804 -0.378529,0 -0.414298,0.419851 -0.431656,0.419733 -0.01536,-1.05e-4 -0.04629,-0.419733 -0.433164,-0.419733 z"
         sodipodi:nodetypes="scsss" /><path
         id="path23"
         style="fill:#70bc1f;stroke:#000000;stroke-width:1.54255;stroke-linecap:round;stroke-linejoin:round;stroke-dasharray:none;paint-order:markers fill stroke"
         d="m 31.728006,-47.094097 c -5.132921,0 0.8132,6.073953 1.333769,6.073953 0.466667,0 6.581042,-6.073953 1.334285,-6.073953 -1.167799,0 -1.278151,1.29528 -1.331701,1.294915 -0.04737,-3.23e-4 -0.142787,-1.294915 -1.336353,-1.294915 z"
         sodipodi:nodetypes="scsss"
         transform="matrix(-0.32413894,0,0,-0.32413894,61.02395,-42.727799)" /><path
         id="path29"
         style="fill:#70bc1f;stroke:#000000;stroke-width:0.5;stroke-linecap:round;stroke-linejoin:round;stroke-dasharray:none;paint-order:markers fill stroke"
         d="m 47.823013,-29.371607 c 0,1.663779 1.968804,-0.26359 1.968804,-0.432327 0,-0.151265 -1.968804,-2.133172 -1.968804,-0.432493 0,0.378529 0.419851,0.414297 0.419733,0.431655 -1.05e-4,0.01535 -0.419733,0.04629 -0.419733,0.433165 z"
         sodipodi:nodetypes="scsss" /><path
         id="path42"
         style="fill:#70bc1f;stroke:#000000;stroke-width:0.5;stroke-linecap:round;stroke-linejoin:round;stroke-dasharray:none;paint-order:markers fill stroke"
         d="m 52.721075,-30.281421 c 0,-1.66378 -1.968804,0.263589 -1.968804,0.432326 0,0.151265 1.968804,2.133172 1.968804,0.432493 0,-0.378528 -0.419851,-0.414297 -0.419731,-0.431656 1.05e-4,-0.01535 0.419731,-0.04629 0.419731,-0.433163 z"
         sodipodi:nodetypes="scsss" /></g></g></svg>
