<?xml version="1.0" encoding="UTF-8" standalone="no"?>
<!-- Created with Inkscape (http://www.inkscape.org/) -->

<svg
   width="6.87639mm"
   height="6.8763895mm"
   viewBox="0 0 6.87639 6.8763895"
   version="1.1"
   id="svg1"
   xml:space="preserve"
   inkscape:version="1.3.2 (091e20e, 2023-11-25, custom)"
   sodipodi:docname="hiker.svg"
   xmlns:inkscape="http://www.inkscape.org/namespaces/inkscape"
   xmlns:sodipodi="http://sodipodi.sourceforge.net/DTD/sodipodi-0.dtd"
   xmlns="http://www.w3.org/2000/svg"
   xmlns:svg="http://www.w3.org/2000/svg"><sodipodi:namedview
     id="namedview1"
     pagecolor="#ffffff"
     bordercolor="#666666"
     borderopacity="1.0"
     inkscape:showpageshadow="2"
     inkscape:pageopacity="0.0"
     inkscape:pagecheckerboard="0"
     inkscape:deskcolor="#d1d1d1"
     inkscape:document-units="mm"
     inkscape:zoom="2.9255614"
     inkscape:cx="-217.56508"
     inkscape:cy="2.5636105"
     inkscape:window-width="1920"
     inkscape:window-height="1017"
     inkscape:window-x="-8"
     inkscape:window-y="-8"
     inkscape:window-maximized="1"
     inkscape:current-layer="layer2" /><defs
     id="defs1" /><g
     inkscape:groupmode="layer"
     id="layer2"
     inkscape:label="Layer 2"
     transform="translate(-15.978285,33.216746)"><rect
       style="fill:#f0f0f0;stroke:#000000;stroke-width:0.5;stroke-linecap:round;stroke-linejoin:round;stroke-dasharray:none;paint-order:markers fill stroke"
       id="rect102"
       width="6.37639"
       height="6.37639"
       x="16.228285"
       y="-32.966747"
       rx="0.98077106"
       ry="0.98077106"
       inkscape:export-filename="..\Godot\Games\2025 Monthly\february\graphics\icons\event.svg"
       inkscape:export-xdpi="22.4"
       inkscape:export-ydpi="22.4" /><path
       id="rect116"
       style="fill:#a8a8a8;stroke:#000000;stroke-width:0.5;stroke-linecap:round;stroke-linejoin:round;stroke-dasharray:none;paint-order:markers fill stroke"
       d="m 20.753225,-29.913044 -0.66227,-0.02463 c 0,0 0.292801,-1.526023 -0.594113,-1.526023 -0.886914,0 -0.616556,1.575292 -0.616556,1.575292 l -0.763001,0.03695 c 0,0 -0.518467,-2.377273 1.330287,-2.377273 1.848755,0 1.305653,2.315686 1.305653,2.315686 z"
       sodipodi:nodetypes="cczcczcc" /><rect
       style="fill:#feba35;stroke:#000000;stroke-width:0.5;stroke-linecap:round;stroke-linejoin:round;stroke-dasharray:none;paint-order:markers fill stroke"
       id="rect115"
       width="2.8947484"
       height="2.8947484"
       x="18.011606"
       y="-30.168087"
       rx="0.55770379"
       ry="0.55770379" /><path
       id="path116"
       style="fill:#e8a900;stroke:#000000;stroke-width:0.5;stroke-linecap:round;stroke-linejoin:round;stroke-dasharray:none;paint-order:markers fill stroke"
       d="m 19.458981,-29.413054 c -0.345051,-1.19e-4 -0.624911,0.205104 -0.625107,0.458393 5.22e-4,0.138808 0.08666,0.269975 0.234254,0.356741 l -0.218351,0.569548 h 1.194802 l -0.194745,-0.569548 c 0.1476,-0.08677 0.233731,-0.217933 0.234253,-0.356741 -1.96e-4,-0.253289 -0.280055,-0.458511 -0.625106,-0.458393 z"
       sodipodi:nodetypes="cccccccc" /></g></svg>
