<?xml version="1.0" encoding="UTF-8" standalone="no"?>
<!-- Created with Inkscape (http://www.inkscape.org/) -->

<svg
   width="6.876389mm"
   height="6.8763895mm"
   viewBox="0 0 6.876389 6.8763895"
   version="1.1"
   id="svg1"
   xml:space="preserve"
   inkscape:version="1.3.2 (091e20e, 2023-11-25, custom)"
   sodipodi:docname="hiker.svg"
   xmlns:inkscape="http://www.inkscape.org/namespaces/inkscape"
   xmlns:sodipodi="http://sodipodi.sourceforge.net/DTD/sodipodi-0.dtd"
   xmlns="http://www.w3.org/2000/svg"
   xmlns:svg="http://www.w3.org/2000/svg"><sodipodi:namedview
     id="namedview1"
     pagecolor="#ffffff"
     bordercolor="#666666"
     borderopacity="1.0"
     inkscape:showpageshadow="2"
     inkscape:pageopacity="0.0"
     inkscape:pagecheckerboard="0"
     inkscape:deskcolor="#d1d1d1"
     inkscape:document-units="mm"
     inkscape:zoom="2.9255614"
     inkscape:cx="-217.56508"
     inkscape:cy="2.5636105"
     inkscape:window-width="1920"
     inkscape:window-height="1017"
     inkscape:window-x="-8"
     inkscape:window-y="-8"
     inkscape:window-maximized="1"
     inkscape:current-layer="layer2" /><defs
     id="defs1" /><g
     inkscape:groupmode="layer"
     id="layer2"
     inkscape:label="Layer 2"
     transform="translate(-36.570081,33.216746)"><rect
       style="fill:#f0f0f0;stroke:#000000;stroke-width:0.5;stroke-linecap:round;stroke-linejoin:round;stroke-dasharray:none;paint-order:markers fill stroke"
       id="rect45"
       width="6.37639"
       height="6.37639"
       x="36.82008"
       y="-32.966747"
       rx="0.98077106"
       ry="0.98077106"
       inkscape:export-filename="..\Godot\Games\2025 Monthly\february\graphics\icons\event.svg"
       inkscape:export-xdpi="22.4"
       inkscape:export-ydpi="22.4" /><path
       d="m 37.472552,-28.138307 q 0,-0.370346 0.107659,-0.654566 0.111965,-0.28422 0.361734,-0.533989 0.249769,-0.254075 0.689018,-0.525376 0.12919,-0.08182 0.180867,-0.137803 0.05598,-0.06029 0.05598,-0.14211 0,-0.176561 -0.254075,-0.176561 -0.18948,0 -0.434942,0.09905 -0.245463,0.09905 -0.443555,0.249769 l -0.254075,-0.917254 q 0.275607,-0.137804 0.633034,-0.232544 0.357428,-0.09905 0.719163,-0.09905 0.594277,0 0.921561,0.262688 0.327283,0.262688 0.327283,0.745 0,0.258382 -0.116272,0.456474 -0.111965,0.193786 -0.275607,0.327284 -0.159335,0.133497 -0.417717,0.305751 -0.288526,0.18948 -0.426329,0.327284 -0.133498,0.133497 -0.133498,0.310057 h 0.52107 v -0.245462 h 0.882804 v 0.951705 H 37.47255 Z"
       id="text45"
       style="font-size:4.30636px;line-height:1.25;font-family:'Alfa Slab One';-inkscape-font-specification:'Alfa Slab One, Normal';letter-spacing:0px;word-spacing:0px;stroke-width:0.0256129"
       aria-label="2" /><path
       d="m 42.530389,-28.52639 h 0.141889 v 0.727182 h -1.38342 v -0.727182 h 0.124153 l -0.172927,-0.261609 h -0.04434 l -0.172927,0.261609 h 0.124153 v 0.727182 h -1.188323 v -0.727182 h 0.18623 l 0.536518,-0.478877 -0.563123,-0.532084 h -0.141889 v -0.727183 h 1.383421 v 0.727183 H 41.23565 l 0.172928,0.257174 h 0.04434 l 0.172928,-0.257174 h -0.124153 v -0.727183 h 1.15285 v 0.727183 h -0.186229 l -0.509915,0.470008 z"
       id="text46"
       style="font-size:4.43404px;line-height:1.25;font-family:'Alfa Slab One';-inkscape-font-specification:'Alfa Slab One, Normal';letter-spacing:0px;word-spacing:0px;stroke-width:0.0263723"
       aria-label="x" /></g></svg>
