<?xml version="1.0" encoding="UTF-8" standalone="no"?>
<!-- Created with Inkscape (http://www.inkscape.org/) -->

<svg
   width="19.449524mm"
   height="12.756909mm"
   viewBox="0 0 19.449524 12.756909"
   version="1.1"
   id="svg1"
   xml:space="preserve"
   inkscape:version="1.3.2 (091e20e, 2023-11-25, custom)"
   sodipodi:docname="hiker.svg"
   xmlns:inkscape="http://www.inkscape.org/namespaces/inkscape"
   xmlns:sodipodi="http://sodipodi.sourceforge.net/DTD/sodipodi-0.dtd"
   xmlns="http://www.w3.org/2000/svg"
   xmlns:svg="http://www.w3.org/2000/svg"><sodipodi:namedview
     id="namedview1"
     pagecolor="#ffffff"
     bordercolor="#666666"
     borderopacity="1.0"
     inkscape:showpageshadow="2"
     inkscape:pageopacity="0.0"
     inkscape:pagecheckerboard="0"
     inkscape:deskcolor="#d1d1d1"
     inkscape:document-units="mm"
     inkscape:zoom="1.0343422"
     inkscape:cx="672.89145"
     inkscape:cy="-31.420937"
     inkscape:window-width="1920"
     inkscape:window-height="1017"
     inkscape:window-x="-8"
     inkscape:window-y="-8"
     inkscape:window-maximized="1"
     inkscape:current-layer="layer2" /><defs
     id="defs1" /><g
     inkscape:groupmode="layer"
     id="layer2"
     inkscape:label="Layer 2"
     transform="translate(-223.06412,-93.375325)"><path
       id="path216"
       style="fill:#00673e;stroke:#000000;stroke-width:0.847727;stroke-linecap:round;stroke-linejoin:round;stroke-dasharray:none;paint-order:markers fill stroke"
       inkscape:transform-center-x="1.4273387e-05"
       inkscape:transform-center-y="-1.4842363"
       d="m 275.09902,106.1905 c -0.85992,0 -4.22972,4.57923 -4.65967,5.19555 -0.42994,0.61632 -3.53672,5.32027 -3.10678,5.93658 0.1343,0.19234 0.85825,0.33755 1.81642,0.44546 -0.43218,0.53678 -0.77972,0.97758 -0.91105,1.15238 -0.20984,0.27932 -0.86346,1.19404 -1.60611,2.29443 -0.24781,-1.26523 -2.73904,-5.03678 -3.12125,-5.58467 -0.42999,-0.61632 -3.79973,-5.19555 -4.65967,-5.19555 -0.85992,0 -4.22971,4.57923 -4.65966,5.19555 -0.42994,0.61631 -3.53621,5.32028 -3.10627,5.93659 0.1343,0.19235 0.85827,0.33754 1.81643,0.44545 -0.43217,0.53678 -0.77973,0.97759 -0.91106,1.15239 -0.24988,0.3326 -1.11458,1.5412 -2.02985,2.92798 -0.34314,-0.76582 -0.64148,-1.39792 -0.73949,-1.59525 -0.30743,-0.61887 -2.71623,-5.21674 -3.33106,-5.21674 -0.61481,0 -3.02418,4.59787 -3.33158,5.21674 -0.30739,0.61888 -2.52845,5.34201 -2.22105,5.96088 0.096,0.19314 0.61358,0.33916 1.29863,0.44751 -0.30899,0.53902 -0.55774,0.98151 -0.65164,1.15704 -0.45258,0.84609 -3.72212,7.3043 -3.26957,8.15041 0.11291,0.21091 0.62277,0.37916 1.33687,0.51418 -1.13267,1.92388 -4.59893,8.05921 -4.05505,8.94415 0.60307,0.98121 9.68724,1.18184 10.89339,1.18184 1.20614,0 10.28879,-0.20058 10.89184,-1.18184 0.47693,-0.77598 -2.05646,-5.44676 -3.46904,-7.91734 2.60646,0.0919 4.8894,0.12299 5.53816,0.12299 1.68699,0 14.39125,-0.19947 15.23473,-1.17667 0.31336,-0.36302 -0.34197,-1.62493 -1.31155,-3.10369 1.00063,0.0196 1.99522,0.0362 2.32493,0.0362 0.73171,0 3.54803,-0.0426 6.55825,-0.16485 0.18171,0.20246 0.87922,0.36565 1.85209,0.49662 -1.58425,1.91593 -6.4317,8.02566 -5.67098,8.90695 0.8435,0.97715 13.54875,1.17667 15.23577,1.17667 0.26301,0 1.76183,-0.0574 2.47375,-0.0692 -0.30963,0.81196 -0.47682,1.4547 -0.33073,1.6924 0.60307,0.98121 9.68724,1.18184 10.89339,1.18184 1.20614,0 10.28879,-0.20058 10.89184,-1.18184 0.47693,-0.77598 -2.05646,-5.44676 -3.46904,-7.91734 2.60646,0.0919 4.88941,0.12299 5.53817,0.12299 1.68698,0 14.39125,-0.19947 15.23473,-1.17667 0.31336,-0.36302 -0.34197,-1.62493 -1.31155,-3.10369 1.00063,0.0196 1.99521,0.0362 2.32492,0.0362 0.73171,0 3.54803,-0.0426 6.55826,-0.16485 0.18171,0.20246 0.87921,0.36565 1.85208,0.49662 -1.58425,1.91593 -6.43169,8.02566 -5.67097,8.90695 0.8435,0.97715 13.54874,1.17667 15.23576,1.17667 0.26305,0 1.7622,-0.0574 2.47427,-0.0692 -0.30963,0.81196 -0.47682,1.4547 -0.33073,1.6924 0.60307,0.98121 9.68724,1.18184 10.89339,1.18184 1.20614,0 10.28879,-0.20058 10.89184,-1.18184 0.47693,-0.77598 -2.05646,-5.44676 -3.46904,-7.91734 2.60646,0.0919 4.88941,0.12299 5.53817,0.12299 1.68699,0 14.39125,-0.19947 15.23473,-1.17667 0.31336,-0.36302 -0.34197,-1.62493 -1.31155,-3.10369 1.00063,0.0196 1.99521,0.0362 2.32492,0.0362 0.73171,0 3.54803,-0.0426 6.55826,-0.16485 0.18171,0.20246 0.87921,0.36565 1.85208,0.49662 -1.58425,1.91593 -6.43169,8.02566 -5.67097,8.90695 0.8435,0.97715 13.54874,1.17667 15.23576,1.17667 0.26305,0 1.7622,-0.0574 2.47427,-0.0692 -0.30963,0.81196 -0.47682,1.4547 -0.33073,1.6924 0.60307,0.98121 9.68724,1.18184 10.89339,1.18184 1.20614,0 10.28879,-0.20058 10.89184,-1.18184 0.47693,-0.77598 -2.05646,-5.44676 -3.46904,-7.91734 2.60646,0.0919 4.88941,0.12299 5.53817,0.12299 1.68699,0 14.39125,-0.19947 15.23473,-1.17667 0.31336,-0.36302 -0.34197,-1.62493 -1.31155,-3.10369 1.00063,0.0196 1.99521,0.0362 2.32492,0.0362 0.73171,0 3.54803,-0.0426 6.55826,-0.16485 0.18171,0.20246 0.87921,0.36565 1.85208,0.49662 -1.58425,1.91593 -6.43169,8.02566 -5.67097,8.90695 0.8435,0.97715 13.54874,1.17667 15.23576,1.17667 1.68698,0 14.39125,-0.19947 15.23473,-1.17667 0.76072,-0.88129 -4.08571,-6.99102 -5.66994,-8.90695 0.99881,-0.13454 1.71022,-0.3025 1.8681,-0.51263 0.63304,-0.84262 -3.94037,-7.27371 -4.57336,-8.11631 -0.13135,-0.17465 -0.47803,-0.61581 -0.91002,-1.15238 0.95817,-0.10789 1.6822,-0.253 1.81643,-0.44545 0.42998,-0.61631 -2.67633,-5.32028 -3.10627,-5.93659 -0.42999,-0.61632 -3.79973,-5.19503 -4.65967,-5.19503 -0.85992,0 -4.22971,4.57871 -4.65966,5.19503 -0.25353,0.36344 -1.4291,2.14272 -2.27015,3.67264 -1.06681,-2.21096 -3.71496,-5.92685 -4.18579,-6.5536 -0.13135,-0.17465 -0.47803,-0.61582 -0.91002,-1.15238 0.95817,-0.10789 1.6822,-0.25302 1.81643,-0.44546 0.42998,-0.61631 -2.67684,-5.32026 -3.10679,-5.93658 -0.42999,-0.61632 -3.79921,-5.19555 -4.65915,-5.19555 -0.85992,0 -4.22971,4.57923 -4.65966,5.19555 -0.42994,0.61632 -3.53673,5.32027 -3.10679,5.93658 0.1343,0.19234 0.85826,0.33755 1.81643,0.44546 -0.43218,0.53678 -0.77973,0.97758 -0.91106,1.15238 -0.20984,0.27932 -0.86345,1.19404 -1.6061,2.29443 -0.24781,-1.26523 -2.73905,-5.03678 -3.12126,-5.58467 -0.42999,-0.61632 -3.79972,-5.19555 -4.65966,-5.19555 -0.85992,0 -4.22972,4.57923 -4.65967,5.19555 -0.42994,0.61631 -3.53621,5.32028 -3.10627,5.93659 0.1343,0.19235 0.85827,0.33754 1.81643,0.44545 -0.43217,0.53678 -0.77973,0.97759 -0.91106,1.15239 -0.24988,0.3326 -1.11458,1.5412 -2.02985,2.92798 -0.34314,-0.76582 -0.64148,-1.39792 -0.73949,-1.59525 -0.30743,-0.61887 -2.71623,-5.21674 -3.33106,-5.21674 -0.61481,0 -3.02418,4.59787 -3.33158,5.21674 -0.28779,0.57942 -2.22645,4.71442 -2.22364,5.75262 -0.15821,-0.22074 -0.55088,-0.81925 -0.62218,-0.91416 -0.13135,-0.17465 -0.47803,-0.61581 -0.91002,-1.15238 0.95817,-0.10789 1.6822,-0.253 1.81642,-0.44545 0.42999,-0.61631 -2.67632,-5.32028 -3.10627,-5.93659 -0.42998,-0.61632 -3.79972,-5.19503 -4.65966,-5.19503 -0.85992,0 -4.22971,4.57871 -4.65966,5.19503 -0.25353,0.36344 -1.4291,2.14272 -2.27015,3.67264 -1.06681,-2.21096 -3.71496,-5.92685 -4.18579,-6.5536 -0.13135,-0.17465 -0.47803,-0.61582 -0.91002,-1.15238 0.95817,-0.10789 1.68219,-0.25302 1.81642,-0.44546 0.42999,-0.61631 -2.67683,-5.32026 -3.10678,-5.93658 -0.42999,-0.61632 -3.79921,-5.19555 -4.65915,-5.19555 -0.85992,0 -4.22971,4.57923 -4.65966,5.19555 -0.42994,0.61632 -3.53673,5.32027 -3.10679,5.93658 0.1343,0.19234 0.85826,0.33755 1.81643,0.44546 -0.43218,0.53678 -0.77973,0.97758 -0.91106,1.15238 -0.20984,0.27932 -0.86345,1.19404 -1.6061,2.29443 -0.24781,-1.26523 -2.73905,-5.03678 -3.12126,-5.58467 -0.42999,-0.61632 -3.79972,-5.19555 -4.65966,-5.19555 -0.85992,0 -4.22972,4.57923 -4.65967,5.19555 -0.42994,0.61631 -3.53621,5.32028 -3.10627,5.93659 0.1343,0.19235 0.85827,0.33754 1.81643,0.44545 -0.43217,0.53678 -0.77973,0.97759 -0.91106,1.15239 -0.24988,0.3326 -1.11458,1.5412 -2.02985,2.92798 -0.34314,-0.76582 -0.64148,-1.39792 -0.73949,-1.59525 -0.30743,-0.61887 -2.71623,-5.21674 -3.33106,-5.21674 -0.61481,0 -3.02418,4.59787 -3.33158,5.21674 -0.28779,0.57942 -2.22645,4.71442 -2.22364,5.75262 -0.15821,-0.22074 -0.55088,-0.81925 -0.62218,-0.91416 -0.13135,-0.17465 -0.47803,-0.61581 -0.91002,-1.15238 0.95817,-0.10789 1.68219,-0.253 1.81642,-0.44545 0.42999,-0.61631 -2.67632,-5.32028 -3.10627,-5.93659 -0.42999,-0.61632 -3.79972,-5.19503 -4.65966,-5.19503 -0.85992,0 -4.22971,4.57871 -4.65966,5.19503 -0.25353,0.36344 -1.4291,2.14272 -2.27015,3.67264 -1.06681,-2.21096 -3.71496,-5.92685 -4.18579,-6.5536 -0.13135,-0.17465 -0.47803,-0.61582 -0.91002,-1.15238 0.95817,-0.10789 1.68219,-0.25302 1.81642,-0.44546 0.42999,-0.61631 -2.67683,-5.32026 -3.10678,-5.93658 -0.42999,-0.61632 -3.79921,-5.19555 -4.65915,-5.19555 -0.85992,0 -4.22971,4.57923 -4.65966,5.19555 -0.42994,0.61632 -3.53673,5.32027 -3.10679,5.93658 0.1343,0.19234 0.85826,0.33755 1.81643,0.44546 -0.43218,0.53678 -0.77973,0.97758 -0.91106,1.15238 -0.20984,0.27932 -0.86345,1.19404 -1.6061,2.29443 -0.24781,-1.26523 -2.73905,-5.03678 -3.12126,-5.58467 -0.42999,-0.61632 -3.79972,-5.19555 -4.65966,-5.19555 -0.85992,0 -4.22972,4.57923 -4.65967,5.19555 -0.42994,0.61631 -3.53621,5.32028 -3.10627,5.93659 0.1343,0.19235 0.85827,0.33754 1.81643,0.44545 -0.43217,0.53678 -0.77973,0.97759 -0.91106,1.15239 -0.24988,0.3326 -1.11458,1.5412 -2.02985,2.92798 -0.34314,-0.76582 -0.64148,-1.39792 -0.73949,-1.59525 -0.30743,-0.61887 -2.71623,-5.21674 -3.33106,-5.21674 -0.61481,0 -3.02418,4.59787 -3.33158,5.21674 -0.28774,0.57932 -2.22578,4.71301 -2.22364,5.7521 -0.15807,-0.22054 -0.55041,-0.81878 -0.62166,-0.91364 -0.13135,-0.17465 -0.47804,-0.61581 -0.91003,-1.15238 0.95817,-0.10789 1.6822,-0.253 1.81643,-0.44545 0.42999,-0.61631 -2.67632,-5.32028 -3.10627,-5.93659 -0.42999,-0.61632 -3.79972,-5.19503 -4.65966,-5.19503 -0.85992,0 -4.22972,4.57871 -4.65967,5.19503 -0.25353,0.36344 -1.42909,2.14272 -2.27014,3.67264 -1.06681,-2.21096 -3.71496,-5.92685 -4.18579,-6.5536 -0.13135,-0.17465 -0.47804,-0.61582 -0.91003,-1.15238 0.95817,-0.10789 1.6822,-0.25302 1.81643,-0.44546 0.42999,-0.61631 -2.67684,-5.32026 -3.10679,-5.93658 -0.42999,-0.61632 -3.7992,-5.19555 -4.65914,-5.19555 z m -8.82169,15.55202 c -0.25307,0.382 -0.51057,0.77746 -0.76171,1.17564 -0.17098,-0.22076 -0.37515,-0.48416 -0.71468,-0.90589 0.63712,-0.0717 1.15088,-0.16211 1.47639,-0.26975 z m 60.22062,0 c -0.25307,0.382 -0.51057,0.77746 -0.76171,1.17564 -0.17098,-0.22076 -0.37516,-0.48416 -0.71469,-0.90589 0.63712,-0.0717 1.15089,-0.16211 1.4764,-0.26975 z m 60.22113,0 c -0.25307,0.382 -0.51057,0.77746 -0.76171,1.17564 -0.17098,-0.22076 -0.37516,-0.48416 -0.71469,-0.90589 0.63712,-0.0717 1.15089,-0.16211 1.4764,-0.26975 z m 60.22113,0 c -0.25307,0.382 -0.51057,0.77746 -0.76171,1.17564 -0.17098,-0.22076 -0.37516,-0.48416 -0.71469,-0.90589 0.63712,-0.0717 1.15089,-0.16211 1.4764,-0.26975 z m -161.65629,5.71025 c -0.017,0.12352 -0.0167,0.22728 0.0238,0.28525 0.1343,0.19235 0.85877,0.33755 1.81694,0.44545 -0.43218,0.53679 -0.77973,0.97758 -0.91106,1.15238 -0.008,0.0109 -0.0463,0.0652 -0.0558,0.078 -0.59399,-0.75947 -1.13391,-1.42843 -1.49448,-1.86449 0.22414,-0.0302 0.42841,-0.063 0.62063,-0.0966 z m 60.22062,0 c -0.017,0.12352 -0.0167,0.22728 0.0238,0.28525 0.1343,0.19235 0.85877,0.33755 1.81694,0.44545 -0.43218,0.53679 -0.77972,0.97758 -0.91105,1.15238 -0.008,0.0109 -0.0463,0.0652 -0.0558,0.078 -0.59399,-0.75947 -1.13392,-1.42843 -1.49449,-1.86449 0.22414,-0.0302 0.42842,-0.063 0.62064,-0.0966 z m 60.22113,0 c -0.017,0.12352 -0.0167,0.22728 0.0238,0.28525 0.1343,0.19235 0.85877,0.33755 1.81694,0.44545 -0.43218,0.53679 -0.77972,0.97758 -0.91105,1.15238 -0.008,0.0109 -0.0463,0.0652 -0.0558,0.078 -0.59399,-0.75947 -1.13392,-1.42843 -1.49449,-1.86449 0.22414,-0.0302 0.42842,-0.063 0.62064,-0.0966 z m 60.22113,0 c -0.017,0.12352 -0.0167,0.22728 0.0238,0.28525 0.1343,0.19235 0.85877,0.33755 1.81694,0.44545 -0.43218,0.53679 -0.77972,0.97758 -0.91105,1.15238 -0.008,0.0109 -0.0463,0.0652 -0.0558,0.078 -0.59399,-0.75947 -1.13392,-1.42843 -1.49449,-1.86449 0.22414,-0.0302 0.42842,-0.063 0.62064,-0.0966 z m -165.15426,3.14554 c 0.22353,0.12203 0.56653,0.22879 1.06402,0.30747 -0.18355,0.32018 -0.26586,0.47096 -0.38706,0.6873 -0.25952,-0.37833 -0.47625,-0.71155 -0.67696,-0.99477 z m 60.22061,0 c 0.22344,0.12214 0.56675,0.22874 1.06454,0.30747 -0.18354,0.32018 -0.26586,0.47096 -0.38706,0.6873 -0.25957,-0.3784 -0.47673,-0.7115 -0.67748,-0.99477 z m 60.22113,0 c 0.22344,0.12214 0.56675,0.22874 1.06454,0.30747 -0.18354,0.32018 -0.26586,0.47096 -0.38706,0.6873 -0.25957,-0.3784 -0.47673,-0.7115 -0.67748,-0.99477 z"
       inkscape:export-filename="..\Godot\Games\2025 Monthly\february\graphics\game_over\terrain\treeline.svg"
       inkscape:export-xdpi="22.4"
       inkscape:export-ydpi="22.4" /><path
       id="path218"
       style="fill:#f0f0f0;stroke:#000000;stroke-width:1;stroke-linecap:round;stroke-linejoin:round;stroke-dasharray:none;paint-order:markers fill stroke"
       d="m 233.51234,93.875321 a 3.4366624,3.4366624 0 0 0 -3.38584,2.87476 3.8888545,3.8888545 0 0 0 -2.67374,-1.066085 3.8888545,3.8888545 0 0 0 -3.88865,3.888652 3.8888545,3.8888545 0 0 0 3.88865,3.889172 3.8888545,3.8888545 0 0 0 1.85312,-0.48111 3.6175392,3.6175392 0 0 0 3.48299,2.65152 3.6175392,3.6175392 0 0 0 2.93212,-1.51412 3.7079778,3.7079778 0 0 0 2.58434,1.06195 3.7079778,3.7079778 0 0 0 3.7083,-3.7083 3.7079778,3.7079778 0 0 0 -3.7083,-3.707787 3.7079778,3.7079778 0 0 0 -1.44901,0.300757 3.4366624,3.4366624 0 0 0 0.0925,-0.752926 3.4366624,3.4366624 0 0 0 -3.43648,-3.436483 z" /></g></svg>
