<?xml version="1.0" encoding="UTF-8" standalone="no"?>
<!-- Created with Inkscape (http://www.inkscape.org/) -->

<svg
   width="33.866665mm"
   height="33.866669mm"
   viewBox="0 0 33.866665 33.866669"
   version="1.1"
   id="svg1"
   xml:space="preserve"
   inkscape:version="1.3.2 (091e20e, 2023-11-25, custom)"
   sodipodi:docname="hiker.svg"
   xmlns:inkscape="http://www.inkscape.org/namespaces/inkscape"
   xmlns:sodipodi="http://sodipodi.sourceforge.net/DTD/sodipodi-0.dtd"
   xmlns="http://www.w3.org/2000/svg"
   xmlns:svg="http://www.w3.org/2000/svg"><sodipodi:namedview
     id="namedview1"
     pagecolor="#ffffff"
     bordercolor="#666666"
     borderopacity="1.0"
     inkscape:showpageshadow="2"
     inkscape:pageopacity="0.0"
     inkscape:pagecheckerboard="0"
     inkscape:deskcolor="#d1d1d1"
     inkscape:document-units="mm"
     inkscape:zoom="2.9255614"
     inkscape:cx="85.453684"
     inkscape:cy="-341.30202"
     inkscape:window-width="1920"
     inkscape:window-height="1017"
     inkscape:window-x="-8"
     inkscape:window-y="-8"
     inkscape:window-maximized="1"
     inkscape:current-layer="layer2" /><defs
     id="defs1" /><g
     inkscape:groupmode="layer"
     id="layer2"
     inkscape:label="Layer 2"
     transform="translate(42.451398,11.24396)"><rect
       style="fill:#fcbbc4;stroke:#000000;stroke-width:0.999582;stroke-linecap:round;stroke-linejoin:round;stroke-dasharray:none;paint-order:markers fill stroke"
       id="rect60"
       width="32.867085"
       height="32.867085"
       x="-41.951607"
       y="-10.744169"
       rx="0.50585866"
       ry="0.50585866"
       inkscape:export-filename="..\Godot\Games\2025 Monthly\february\graphics\tiles\bonus_tile.svg"
       inkscape:export-xdpi="22.4"
       inkscape:export-ydpi="22.4" /><g
       id="g149"
       transform="translate(31.618367,16.574725)"><rect
         style="fill:#f0f0f0;stroke:#000000;stroke-width:1;stroke-linecap:round;stroke-linejoin:round;stroke-dasharray:none;paint-order:markers fill stroke"
         id="rect134"
         width="25.504114"
         height="25.504114"
         x="-69.888489"
         y="-23.637409"
         rx="3.9228618"
         ry="3.9228618"
         inkscape:export-filename="..\Godot\Games\2025 Monthly\february\graphics\ui_icons\bonus.svg"
         inkscape:export-xdpi="22.4"
         inkscape:export-ydpi="22.4" /><rect
         style="fill:#d8ccc6;fill-opacity:1;stroke:#000000;stroke-width:1;stroke-linecap:round;stroke-dasharray:none;paint-order:markers fill stroke"
         id="rect137"
         width="12.003389"
         height="19.421892"
         x="-64.104256"
         y="-28.824329"
         rx="2.9220843"
         ry="2.9220843"
         transform="rotate(-7.9627011)" /><g
         id="g146"
         transform="matrix(1.17061,-1.5513497,1.5513497,1.17061,-45.499004,101.70109)"
         style="stroke-width:0.514548;stroke-dasharray:none"><path
           id="path144"
           style="fill:#f0f0f0;stroke:#000000;stroke-width:0.514548;stroke-linecap:round;stroke-linejoin:round;stroke-dasharray:none;paint-order:markers fill stroke"
           d="m 42.955382,-42.923899 a 0.57263015,0.57263015 0 0 0 -0.572811,0.572812 0.57263015,0.57263015 0 0 0 0.112224,0.336673 l -1.545034,0.892341 c -0.180889,0.104436 -0.242378,0.334252 -0.137942,0.515141 l 0.151191,0.262246 c 0.104436,0.18089 0.334252,0.242379 0.515141,0.137943 l 1.576597,-0.909875 c 0.04446,-0.02567 0.08132,-0.0592 0.110666,-0.09742 a 0.57263015,0.57263015 0 0 0 0.368626,0.134436 0.57263015,0.57263015 0 0 0 0.572422,-0.572423 0.57263015,0.57263015 0 0 0 -0.572423,-0.572811 0.57263015,0.57263015 0 0 0 -0.02221,0.0016 0.57263015,0.57263015 0 0 0 0.01598,-0.127812 0.57263015,0.57263015 0 0 0 -0.572032,-0.572812 z" /><path
           id="path145"
           style="fill:#d15400;stroke:#000000;stroke-width:0.514548;stroke-linecap:round;stroke-linejoin:round;stroke-dasharray:none;paint-order:markers fill stroke"
           d="m 42.47926,-40.175163 c 0,0.692432 -0.597494,0.747433 -1.253759,1.253759 -0.548231,0.422973 -2.049414,-0.549272 -2.049414,-1.241703 0,-0.692432 0.99532,-1.59131 1.687752,-1.59131 0.692432,0 1.615421,0.886822 1.615421,1.579254 z"
           sodipodi:nodetypes="sssss" /><path
           id="path146"
           style="fill:#ed171f;stroke:#000000;stroke-width:0.514548;stroke-linecap:round;stroke-linejoin:round;stroke-dasharray:none;paint-order:markers fill stroke"
           d="m 41.382218,-39.512117 c 0.201941,0.564166 -0.594262,0.928263 -1.193481,0.928263 -0.59922,0 -1.097039,-0.582206 -1.097039,-1.181426 0,-0.59922 0.387518,-1.281618 0.880042,-0.940319 0.652407,0.45209 1.233449,0.698912 1.410478,1.193482 z"
           sodipodi:nodetypes="sssss" /></g><rect
         style="fill:#f0f0f0;fill-opacity:1;stroke:#000000;stroke-width:1;stroke-linecap:round;stroke-dasharray:none;paint-order:markers fill stroke"
         id="rect146"
         width="12.003389"
         height="19.421892"
         x="-60.712017"
         y="-9.7031288"
         rx="2.9220843"
         ry="2.9220843"
         transform="rotate(11.865877)" /><path
         id="path149"
         style="fill:#70bc1f;stroke:#000000;stroke-width:1;stroke-linecap:round;stroke-linejoin:round;stroke-dasharray:none;paint-order:markers fill stroke"
         d="m -54.652745,-7.3689384 c 3.846466,5.430492 5.816686,-5.4119966 5.426584,-5.9627456 -0.3497,-0.493724 -11.357732,-2.410907 -7.425955,3.140018 0.875118,1.2355016 2.32818,0.3816176 2.367922,0.4385466 0.0352,0.05036 -1.262985,1.12144 -0.368579,2.384197 z"
         sodipodi:nodetypes="scsss" /></g></g></svg>
